<?xml version="1.0" encoding="UTF-8" standalone="no"?>
<!DOCTYPE svg PUBLIC "-//W3C//DTD SVG 1.1//EN"
 "http://www.w3.org/Graphics/SVG/1.1/DTD/svg11.dtd">
<!-- Generated by graphviz version 2.44.1 (20200629.0846)
 -->
<!-- Title: dependencies Pages: 1 -->
<svg width="504pt" height="284pt"
 viewBox="0.00 0.00 504.00 284.00" xmlns="http://www.w3.org/2000/svg" xmlns:xlink="http://www.w3.org/1999/xlink">
<g id="graph0" class="graph" transform="scale(1 1) rotate(0) translate(4 280)">
<title>dependencies</title>
<polygon fill="white" stroke="transparent" points="-4,4 -4,-280 500,-280 500,4 -4,4"/>
<text text-anchor="start" x="227.01" y="-42.4" font-family="sans-serif" font-weight="bold" font-size="14.00">Legend</text>
<polygon fill="#ffffb3" stroke="transparent" points="14,-10 14,-30 34,-30 34,-10 14,-10"/>
<text text-anchor="start" x="37.63" y="-15.4" font-family="sans-serif" font-size="14.00"> &#160;Declarations</text>
<polygon fill="#8dd3c7" stroke="transparent" points="127,-10 127,-30 147,-30 147,-10 127,-10"/>
<text text-anchor="start" x="150.73" y="-15.4" font-family="sans-serif" font-size="14.00"> &#160;Module</text>
<polygon fill="#80b1d3" stroke="transparent" points="213,-10 213,-30 233,-30 233,-10 213,-10"/>
<text text-anchor="start" x="236.78" y="-15.4" font-family="sans-serif" font-size="14.00"> &#160;Bootstrap</text>
<polygon fill="#fdb462" stroke="transparent" points="310,-10 310,-30 330,-30 330,-10 310,-10"/>
<text text-anchor="start" x="333.67" y="-15.4" font-family="sans-serif" font-size="14.00"> &#160;Providers</text>
<polygon fill="#fb8072" stroke="transparent" points="406,-10 406,-30 426,-30 426,-10 406,-10"/>
<text text-anchor="start" x="429.73" y="-15.4" font-family="sans-serif" font-size="14.00"> &#160;Exports</text>
<g id="clust1" class="cluster">
<title>cluster_GithubModule</title>
<polygon fill="none" stroke="black" stroke-dasharray="1,5" points="84,-70 84,-268 412,-268 412,-70 84,-70"/>
</g>
<g id="clust4" class="cluster">
<title>cluster_GithubModule_imports</title>
<polygon fill="none" stroke="black" points="244,-78 244,-130 404,-130 404,-78 244,-78"/>
</g>
<g id="clust2" class="cluster">
<title>cluster_GithubModule_declarations</title>
<polygon fill="none" stroke="black" points="92,-78 92,-130 236,-130 236,-78 92,-78"/>
</g>
<g id="clust5" class="cluster">
<title>cluster_GithubModule_exports</title>
<polygon fill="none" stroke="black" points="171,-208 171,-260 319,-260 319,-208 171,-208"/>
</g>
<!-- AccountComponent -->
<g id="node1" class="node">
<title>AccountComponent</title>
<polygon fill="#ffffb3" stroke="black" points="228.26,-122 99.74,-122 99.74,-86 228.26,-86 228.26,-122"/>
<text text-anchor="middle" x="164" y="-99.8" font-family="Times,serif" font-size="14.00">AccountComponent</text>
</g>
<!-- GithubModule -->
<g id="node2" class="node">
<title>GithubModule</title>
<polygon fill="#8dd3c7" stroke="black" points="294.44,-187 291.44,-191 270.44,-191 267.44,-187 195.56,-187 195.56,-151 294.44,-151 294.44,-187"/>
<text text-anchor="middle" x="245" y="-164.8" font-family="Times,serif" font-size="14.00">GithubModule</text>
</g>
<!-- AccountComponent&#45;&gt;GithubModule -->
<g id="edge1" class="edge">
<title>AccountComponent&#45;&gt;GithubModule</title>
<path fill="none" stroke="black" d="M212.08,-122.11C212.08,-122.11 212.08,-140.99 212.08,-140.99"/>
<polygon fill="black" stroke="black" points="208.58,-140.99 212.08,-150.99 215.58,-140.99 208.58,-140.99"/>
</g>
<!-- AccountComponent  -->
<g id="node4" class="node">
<title>AccountComponent </title>
<polygon fill="#fb8072" stroke="black" points="311.26,-252 178.74,-252 178.74,-216 311.26,-216 311.26,-252"/>
<text text-anchor="middle" x="245" y="-229.8" font-family="Times,serif" font-size="14.00">AccountComponent </text>
</g>
<!-- GithubModule&#45;&gt;AccountComponent  -->
<g id="edge3" class="edge">
<title>GithubModule&#45;&gt;AccountComponent </title>
<path fill="none" stroke="black" stroke-dasharray="5,2" d="M245,-187.11C245,-187.11 245,-205.99 245,-205.99"/>
<polygon fill="black" stroke="black" points="241.5,-205.99 245,-215.99 248.5,-205.99 241.5,-205.99"/>
</g>
<!-- GithubRoutingModule -->
<g id="node3" class="node">
<title>GithubRoutingModule</title>
<polygon fill="#8dd3c7" stroke="black" points="395.56,-122 392.56,-126 371.56,-126 368.56,-122 252.44,-122 252.44,-86 395.56,-86 395.56,-122"/>
<text text-anchor="middle" x="324" y="-99.8" font-family="Times,serif" font-size="14.00">GithubRoutingModule</text>
</g>
<!-- GithubRoutingModule&#45;&gt;GithubModule -->
<g id="edge2" class="edge">
<title>GithubRoutingModule&#45;&gt;GithubModule</title>
<path fill="none" stroke="black" d="M273.22,-122.11C273.22,-122.11 273.22,-140.99 273.22,-140.99"/>
<polygon fill="black" stroke="black" points="269.72,-140.99 273.22,-150.99 276.72,-140.99 269.72,-140.99"/>
</g>
</g>
</svg>
