<?xml version="1.0" encoding="UTF-8" standalone="no"?>
<!DOCTYPE svg PUBLIC "-//W3C//DTD SVG 1.1//EN"
 "http://www.w3.org/Graphics/SVG/1.1/DTD/svg11.dtd">
<!-- Generated by graphviz version 2.44.1 (20200629.0846)
 -->
<!-- Title: dependencies Pages: 1 -->
<svg width="504pt" height="284pt"
 viewBox="0.00 0.00 504.00 284.00" xmlns="http://www.w3.org/2000/svg" xmlns:xlink="http://www.w3.org/1999/xlink">
<g id="graph0" class="graph" transform="scale(1 1) rotate(0) translate(4 280)">
<title>dependencies</title>
<polygon fill="white" stroke="transparent" points="-4,4 -4,-280 500,-280 500,4 -4,4"/>
<text text-anchor="start" x="227.01" y="-42.4" font-family="sans-serif" font-weight="bold" font-size="14.00">Legend</text>
<polygon fill="#ffffb3" stroke="transparent" points="14,-10 14,-30 34,-30 34,-10 14,-10"/>
<text text-anchor="start" x="37.63" y="-15.4" font-family="sans-serif" font-size="14.00"> &#160;Declarations</text>
<polygon fill="#8dd3c7" stroke="transparent" points="127,-10 127,-30 147,-30 147,-10 127,-10"/>
<text text-anchor="start" x="150.73" y="-15.4" font-family="sans-serif" font-size="14.00"> &#160;Module</text>
<polygon fill="#80b1d3" stroke="transparent" points="213,-10 213,-30 233,-30 233,-10 213,-10"/>
<text text-anchor="start" x="236.78" y="-15.4" font-family="sans-serif" font-size="14.00"> &#160;Bootstrap</text>
<polygon fill="#fdb462" stroke="transparent" points="310,-10 310,-30 330,-30 330,-10 310,-10"/>
<text text-anchor="start" x="333.67" y="-15.4" font-family="sans-serif" font-size="14.00"> &#160;Providers</text>
<polygon fill="#fb8072" stroke="transparent" points="406,-10 406,-30 426,-30 426,-10 406,-10"/>
<text text-anchor="start" x="429.73" y="-15.4" font-family="sans-serif" font-size="14.00"> &#160;Exports</text>
<g id="clust1" class="cluster">
<title>cluster_GithubModule</title>
<polygon fill="none" stroke="black" stroke-dasharray="1,5" points="84,-70 84,-268 412,-268 412,-70 84,-70"/>
</g>
<g id="clust5" class="cluster">
<title>cluster_GithubModule_exports</title>
<polygon fill="none" stroke="black" points="177,-208 177,-260 325,-260 325,-208 177,-208"/>
</g>
<g id="clust2" class="cluster">
<title>cluster_GithubModule_declarations</title>
<polygon fill="none" stroke="black" points="260,-78 260,-130 404,-130 404,-78 260,-78"/>
</g>
<g id="clust4" class="cluster">
<title>cluster_GithubModule_imports</title>
<polygon fill="none" stroke="black" points="92,-78 92,-130 252,-130 252,-78 92,-78"/>
</g>
<!-- AccountComponent -->
<g id="node1" class="node">
<title>AccountComponent</title>
<polygon fill="#ffffb3" stroke="black" points="396.26,-122 267.74,-122 267.74,-86 396.26,-86 396.26,-122"/>
<text text-anchor="middle" x="332" y="-99.8" font-family="Times,serif" font-size="14.00">AccountComponent</text>
</g>
<!-- GithubModule -->
<g id="node2" class="node">
<title>GithubModule</title>
<polygon fill="#8dd3c7" stroke="black" points="300.44,-187 297.44,-191 276.44,-191 273.44,-187 201.56,-187 201.56,-151 300.44,-151 300.44,-187"/>
<text text-anchor="middle" x="251" y="-164.8" font-family="Times,serif" font-size="14.00">GithubModule</text>
</g>
<!-- AccountComponent&#45;&gt;GithubModule -->
<g id="edge1" class="edge">
<title>AccountComponent&#45;&gt;GithubModule</title>
<path fill="none" stroke="black" d="M283.92,-122.11C283.92,-122.11 283.92,-140.99 283.92,-140.99"/>
<polygon fill="black" stroke="black" points="280.42,-140.99 283.92,-150.99 287.42,-140.99 280.42,-140.99"/>
</g>
<!-- AccountComponent  -->
<g id="node4" class="node">
<title>AccountComponent </title>
<polygon fill="#fb8072" stroke="black" points="317.26,-252 184.74,-252 184.74,-216 317.26,-216 317.26,-252"/>
<text text-anchor="middle" x="251" y="-229.8" font-family="Times,serif" font-size="14.00">AccountComponent </text>
</g>
<!-- GithubModule&#45;&gt;AccountComponent  -->
<g id="edge3" class="edge">
<title>GithubModule&#45;&gt;AccountComponent </title>
<path fill="none" stroke="black" stroke-dasharray="5,2" d="M251,-187.11C251,-187.11 251,-205.99 251,-205.99"/>
<polygon fill="black" stroke="black" points="247.5,-205.99 251,-215.99 254.5,-205.99 247.5,-205.99"/>
</g>
<!-- GithubRoutingModule -->
<g id="node3" class="node">
<title>GithubRoutingModule</title>
<polygon fill="#8dd3c7" stroke="black" points="243.56,-122 240.56,-126 219.56,-126 216.56,-122 100.44,-122 100.44,-86 243.56,-86 243.56,-122"/>
<text text-anchor="middle" x="172" y="-99.8" font-family="Times,serif" font-size="14.00">GithubRoutingModule</text>
</g>
<!-- GithubRoutingModule&#45;&gt;GithubModule -->
<g id="edge2" class="edge">
<title>GithubRoutingModule&#45;&gt;GithubModule</title>
<path fill="none" stroke="black" d="M222.78,-122.11C222.78,-122.11 222.78,-140.99 222.78,-140.99"/>
<polygon fill="black" stroke="black" points="219.28,-140.99 222.78,-150.99 226.28,-140.99 219.28,-140.99"/>
</g>
</g>
</svg>
