<?xml version="1.0" encoding="UTF-8" standalone="no"?>
<!DOCTYPE svg PUBLIC "-//W3C//DTD SVG 1.1//EN"
 "http://www.w3.org/Graphics/SVG/1.1/DTD/svg11.dtd">
<!-- Generated by graphviz version 2.44.1 (20200629.0846)
 -->
<!-- Title: dependencies Pages: 1 -->
<svg width="682pt" height="284pt"
 viewBox="0.00 0.00 682.00 284.00" xmlns="http://www.w3.org/2000/svg" xmlns:xlink="http://www.w3.org/1999/xlink">
<g id="graph0" class="graph" transform="scale(1 1) rotate(0) translate(4 280)">
<title>dependencies</title>
<polygon fill="white" stroke="transparent" points="-4,4 -4,-280 678,-280 678,4 -4,4"/>
<text text-anchor="start" x="316.01" y="-42.4" font-family="sans-serif" font-weight="bold" font-size="14.00">Legend</text>
<polygon fill="#ffffb3" stroke="transparent" points="103,-10 103,-30 123,-30 123,-10 103,-10"/>
<text text-anchor="start" x="126.63" y="-15.4" font-family="sans-serif" font-size="14.00"> &#160;Declarations</text>
<polygon fill="#8dd3c7" stroke="transparent" points="216,-10 216,-30 236,-30 236,-10 216,-10"/>
<text text-anchor="start" x="239.73" y="-15.4" font-family="sans-serif" font-size="14.00"> &#160;Module</text>
<polygon fill="#80b1d3" stroke="transparent" points="302,-10 302,-30 322,-30 322,-10 302,-10"/>
<text text-anchor="start" x="325.78" y="-15.4" font-family="sans-serif" font-size="14.00"> &#160;Bootstrap</text>
<polygon fill="#fdb462" stroke="transparent" points="399,-10 399,-30 419,-30 419,-10 399,-10"/>
<text text-anchor="start" x="422.67" y="-15.4" font-family="sans-serif" font-size="14.00"> &#160;Providers</text>
<polygon fill="#fb8072" stroke="transparent" points="495,-10 495,-30 515,-30 515,-10 495,-10"/>
<text text-anchor="start" x="518.73" y="-15.4" font-family="sans-serif" font-size="14.00"> &#160;Exports</text>
<g id="clust1" class="cluster">
<title>cluster_ContainerModule</title>
<polygon fill="none" stroke="black" stroke-dasharray="1,5" points="8,-70 8,-268 666,-268 666,-70 8,-70"/>
</g>
<g id="clust5" class="cluster">
<title>cluster_ContainerModule_exports</title>
<polygon fill="none" stroke="black" points="264,-208 264,-260 412,-260 412,-208 264,-208"/>
</g>
<g id="clust2" class="cluster">
<title>cluster_ContainerModule_declarations</title>
<polygon fill="none" stroke="black" points="514,-78 514,-130 658,-130 658,-78 514,-78"/>
</g>
<g id="clust7" class="cluster">
<title>cluster_ContainerModule_providers</title>
<polygon fill="none" stroke="black" points="16,-78 16,-130 506,-130 506,-78 16,-78"/>
</g>
<!-- AccountComponent -->
<g id="node1" class="node">
<title>AccountComponent</title>
<polygon fill="#ffffb3" stroke="black" points="650.26,-122 521.74,-122 521.74,-86 650.26,-86 650.26,-122"/>
<text text-anchor="middle" x="586" y="-99.8" font-family="Times,serif" font-size="14.00">AccountComponent</text>
</g>
<!-- ContainerModule -->
<g id="node2" class="node">
<title>ContainerModule</title>
<polygon fill="#8dd3c7" stroke="black" points="395.26,-187 392.26,-191 371.26,-191 368.26,-187 280.74,-187 280.74,-151 395.26,-151 395.26,-187"/>
<text text-anchor="middle" x="338" y="-164.8" font-family="Times,serif" font-size="14.00">ContainerModule</text>
</g>
<!-- AccountComponent&#45;&gt;ContainerModule -->
<g id="edge1" class="edge">
<title>AccountComponent&#45;&gt;ContainerModule</title>
<path fill="none" stroke="black" d="M586,-122.11C586,-141.34 586,-169 586,-169 586,-169 405.52,-169 405.52,-169"/>
<polygon fill="black" stroke="black" points="405.52,-165.5 395.52,-169 405.52,-172.5 405.52,-165.5"/>
</g>
<!-- AccountComponent  -->
<g id="node3" class="node">
<title>AccountComponent </title>
<polygon fill="#fb8072" stroke="black" points="404.26,-252 271.74,-252 271.74,-216 404.26,-216 404.26,-252"/>
<text text-anchor="middle" x="338" y="-229.8" font-family="Times,serif" font-size="14.00">AccountComponent </text>
</g>
<!-- ContainerModule&#45;&gt;AccountComponent  -->
<g id="edge2" class="edge">
<title>ContainerModule&#45;&gt;AccountComponent </title>
<path fill="none" stroke="black" stroke-dasharray="5,2" d="M338,-187.11C338,-187.11 338,-205.99 338,-205.99"/>
<polygon fill="black" stroke="black" points="334.5,-205.99 338,-215.99 341.5,-205.99 334.5,-205.99"/>
</g>
<!-- ContainerService -->
<g id="node4" class="node">
<title>ContainerService</title>
<ellipse fill="#fdb462" stroke="black" cx="420" cy="-104" rx="78.15" ry="18"/>
<text text-anchor="middle" x="420" y="-99.8" font-family="Times,serif" font-size="14.00">ContainerService</text>
</g>
<!-- ContainerService&#45;&gt;ContainerModule -->
<g id="edge3" class="edge">
<title>ContainerService&#45;&gt;ContainerModule</title>
<path fill="none" stroke="black" d="M368.65,-117.78C368.65,-117.78 368.65,-140.55 368.65,-140.55"/>
<polygon fill="black" stroke="black" points="365.15,-140.55 368.65,-150.55 372.15,-140.55 365.15,-140.55"/>
</g>
<!-- GithubService -->
<g id="node5" class="node">
<title>GithubService</title>
<ellipse fill="#fdb462" stroke="black" cx="257" cy="-104" rx="66.63" ry="18"/>
<text text-anchor="middle" x="257" y="-99.8" font-family="Times,serif" font-size="14.00">GithubService</text>
</g>
<!-- GithubService&#45;&gt;ContainerModule -->
<g id="edge4" class="edge">
<title>GithubService&#45;&gt;ContainerModule</title>
<path fill="none" stroke="black" d="M302.22,-117.47C302.22,-117.47 302.22,-140.86 302.22,-140.86"/>
<polygon fill="black" stroke="black" points="298.72,-140.86 302.22,-150.86 305.72,-140.86 298.72,-140.86"/>
</g>
<!-- NetworkService -->
<g id="node6" class="node">
<title>NetworkService</title>
<ellipse fill="#fdb462" stroke="black" cx="98" cy="-104" rx="73.55" ry="18"/>
<text text-anchor="middle" x="98" y="-99.8" font-family="Times,serif" font-size="14.00">NetworkService</text>
</g>
<!-- NetworkService&#45;&gt;ContainerModule -->
<g id="edge5" class="edge">
<title>NetworkService&#45;&gt;ContainerModule</title>
<path fill="none" stroke="black" d="M98,-122.11C98,-141.34 98,-169 98,-169 98,-169 270.51,-169 270.51,-169"/>
<polygon fill="black" stroke="black" points="270.51,-172.5 280.51,-169 270.51,-165.5 270.51,-172.5"/>
</g>
</g>
</svg>
