<?xml version="1.0" encoding="UTF-8" standalone="no"?>
<!DOCTYPE svg PUBLIC "-//W3C//DTD SVG 1.1//EN"
 "http://www.w3.org/Graphics/SVG/1.1/DTD/svg11.dtd">
<!-- Generated by graphviz version 2.44.1 (20200629.0846)
 -->
<!-- Title: dependencies Pages: 1 -->
<svg width="830pt" height="284pt"
 viewBox="0.00 0.00 830.00 284.00" xmlns="http://www.w3.org/2000/svg" xmlns:xlink="http://www.w3.org/1999/xlink">
<g id="graph0" class="graph" transform="scale(1 1) rotate(0) translate(4 280)">
<title>dependencies</title>
<polygon fill="white" stroke="transparent" points="-4,4 -4,-280 826,-280 826,4 -4,4"/>
<text text-anchor="start" x="390.01" y="-42.4" font-family="sans-serif" font-weight="bold" font-size="14.00">Legend</text>
<polygon fill="#ffffb3" stroke="transparent" points="177,-10 177,-30 197,-30 197,-10 177,-10"/>
<text text-anchor="start" x="200.63" y="-15.4" font-family="sans-serif" font-size="14.00"> &#160;Declarations</text>
<polygon fill="#8dd3c7" stroke="transparent" points="290,-10 290,-30 310,-30 310,-10 290,-10"/>
<text text-anchor="start" x="313.73" y="-15.4" font-family="sans-serif" font-size="14.00"> &#160;Module</text>
<polygon fill="#80b1d3" stroke="transparent" points="376,-10 376,-30 396,-30 396,-10 376,-10"/>
<text text-anchor="start" x="399.78" y="-15.4" font-family="sans-serif" font-size="14.00"> &#160;Bootstrap</text>
<polygon fill="#fdb462" stroke="transparent" points="473,-10 473,-30 493,-30 493,-10 473,-10"/>
<text text-anchor="start" x="496.67" y="-15.4" font-family="sans-serif" font-size="14.00"> &#160;Providers</text>
<polygon fill="#fb8072" stroke="transparent" points="569,-10 569,-30 589,-30 589,-10 569,-10"/>
<text text-anchor="start" x="592.73" y="-15.4" font-family="sans-serif" font-size="14.00"> &#160;Exports</text>
<g id="clust1" class="cluster">
<title>cluster_ContainerModule</title>
<polygon fill="none" stroke="black" stroke-dasharray="1,5" points="8,-70 8,-268 814,-268 814,-70 8,-70"/>
</g>
<g id="clust2" class="cluster">
<title>cluster_ContainerModule_declarations</title>
<polygon fill="none" stroke="black" points="654,-78 654,-130 806,-130 806,-78 654,-78"/>
</g>
<g id="clust5" class="cluster">
<title>cluster_ContainerModule_exports</title>
<polygon fill="none" stroke="black" points="338,-208 338,-260 494,-260 494,-208 338,-208"/>
</g>
<g id="clust7" class="cluster">
<title>cluster_ContainerModule_providers</title>
<polygon fill="none" stroke="black" points="16,-78 16,-130 646,-130 646,-78 16,-78"/>
</g>
<!-- ContainerComponent -->
<g id="node1" class="node">
<title>ContainerComponent</title>
<polygon fill="#ffffb3" stroke="black" points="798.04,-122 661.96,-122 661.96,-86 798.04,-86 798.04,-122"/>
<text text-anchor="middle" x="730" y="-99.8" font-family="Times,serif" font-size="14.00">ContainerComponent</text>
</g>
<!-- ContainerModule -->
<g id="node2" class="node">
<title>ContainerModule</title>
<polygon fill="#8dd3c7" stroke="black" points="473.26,-187 470.26,-191 449.26,-191 446.26,-187 358.74,-187 358.74,-151 473.26,-151 473.26,-187"/>
<text text-anchor="middle" x="416" y="-164.8" font-family="Times,serif" font-size="14.00">ContainerModule</text>
</g>
<!-- ContainerComponent&#45;&gt;ContainerModule -->
<g id="edge1" class="edge">
<title>ContainerComponent&#45;&gt;ContainerModule</title>
<path fill="none" stroke="black" d="M730,-122.28C730,-143.32 730,-175 730,-175 730,-175 483.59,-175 483.59,-175"/>
<polygon fill="black" stroke="black" points="483.59,-171.5 473.59,-175 483.59,-178.5 483.59,-171.5"/>
</g>
<!-- ContainerComponent  -->
<g id="node3" class="node">
<title>ContainerComponent </title>
<polygon fill="#fb8072" stroke="black" points="486.04,-252 345.96,-252 345.96,-216 486.04,-216 486.04,-252"/>
<text text-anchor="middle" x="416" y="-229.8" font-family="Times,serif" font-size="14.00">ContainerComponent </text>
</g>
<!-- ContainerModule&#45;&gt;ContainerComponent  -->
<g id="edge2" class="edge">
<title>ContainerModule&#45;&gt;ContainerComponent </title>
<path fill="none" stroke="black" stroke-dasharray="5,2" d="M416,-187.11C416,-187.11 416,-205.99 416,-205.99"/>
<polygon fill="black" stroke="black" points="412.5,-205.99 416,-215.99 419.5,-205.99 412.5,-205.99"/>
</g>
<!-- GithubService -->
<g id="node4" class="node">
<title>GithubService</title>
<ellipse fill="#fdb462" stroke="black" cx="571" cy="-104" rx="66.63" ry="18"/>
<text text-anchor="middle" x="571" y="-99.8" font-family="Times,serif" font-size="14.00">GithubService</text>
</g>
<!-- GithubService&#45;&gt;ContainerModule -->
<g id="edge3" class="edge">
<title>GithubService&#45;&gt;ContainerModule</title>
<path fill="none" stroke="black" d="M571,-122.02C571,-139.37 571,-163 571,-163 571,-163 483.28,-163 483.28,-163"/>
<polygon fill="black" stroke="black" points="483.28,-159.5 473.28,-163 483.28,-166.5 483.28,-159.5"/>
</g>
<!-- IdentityService -->
<g id="node5" class="node">
<title>IdentityService</title>
<ellipse fill="#fdb462" stroke="black" cx="416" cy="-104" rx="70.06" ry="18"/>
<text text-anchor="middle" x="416" y="-99.8" font-family="Times,serif" font-size="14.00">IdentityService</text>
</g>
<!-- IdentityService&#45;&gt;ContainerModule -->
<g id="edge4" class="edge">
<title>IdentityService&#45;&gt;ContainerModule</title>
<path fill="none" stroke="black" d="M416,-122.11C416,-122.11 416,-140.99 416,-140.99"/>
<polygon fill="black" stroke="black" points="412.5,-140.99 416,-150.99 419.5,-140.99 412.5,-140.99"/>
</g>
<!-- NetworkService -->
<g id="node6" class="node">
<title>NetworkService</title>
<ellipse fill="#fdb462" stroke="black" cx="254" cy="-104" rx="73.55" ry="18"/>
<text text-anchor="middle" x="254" y="-99.8" font-family="Times,serif" font-size="14.00">NetworkService</text>
</g>
<!-- NetworkService&#45;&gt;ContainerModule -->
<g id="edge5" class="edge">
<title>NetworkService&#45;&gt;ContainerModule</title>
<path fill="none" stroke="black" d="M254,-122.02C254,-139.37 254,-163 254,-163 254,-163 348.43,-163 348.43,-163"/>
<polygon fill="black" stroke="black" points="348.43,-166.5 358.43,-163 348.43,-159.5 348.43,-166.5"/>
</g>
<!-- StorageService -->
<g id="node7" class="node">
<title>StorageService</title>
<ellipse fill="#fdb462" stroke="black" cx="93" cy="-104" rx="69.48" ry="18"/>
<text text-anchor="middle" x="93" y="-99.8" font-family="Times,serif" font-size="14.00">StorageService</text>
</g>
<!-- StorageService&#45;&gt;ContainerModule -->
<g id="edge6" class="edge">
<title>StorageService&#45;&gt;ContainerModule</title>
<path fill="none" stroke="black" d="M93,-122.28C93,-143.32 93,-175 93,-175 93,-175 348.63,-175 348.63,-175"/>
<polygon fill="black" stroke="black" points="348.63,-178.5 358.63,-175 348.63,-171.5 348.63,-178.5"/>
</g>
</g>
</svg>
