<?xml version="1.0" encoding="UTF-8" standalone="no"?>
<!DOCTYPE svg PUBLIC "-//W3C//DTD SVG 1.1//EN"
 "http://www.w3.org/Graphics/SVG/1.1/DTD/svg11.dtd">
<!-- Generated by graphviz version 2.44.1 (20200629.0846)
 -->
<!-- Title: dependencies Pages: 1 -->
<svg width="866pt" height="284pt"
 viewBox="0.00 0.00 866.00 284.00" xmlns="http://www.w3.org/2000/svg" xmlns:xlink="http://www.w3.org/1999/xlink">
<g id="graph0" class="graph" transform="scale(1 1) rotate(0) translate(4 280)">
<title>dependencies</title>
<polygon fill="white" stroke="transparent" points="-4,4 -4,-280 862,-280 862,4 -4,4"/>
<text text-anchor="start" x="408.01" y="-42.4" font-family="sans-serif" font-weight="bold" font-size="14.00">Legend</text>
<polygon fill="#ffffb3" stroke="transparent" points="195,-10 195,-30 215,-30 215,-10 195,-10"/>
<text text-anchor="start" x="218.63" y="-15.4" font-family="sans-serif" font-size="14.00"> &#160;Declarations</text>
<polygon fill="#8dd3c7" stroke="transparent" points="308,-10 308,-30 328,-30 328,-10 308,-10"/>
<text text-anchor="start" x="331.73" y="-15.4" font-family="sans-serif" font-size="14.00"> &#160;Module</text>
<polygon fill="#80b1d3" stroke="transparent" points="394,-10 394,-30 414,-30 414,-10 394,-10"/>
<text text-anchor="start" x="417.78" y="-15.4" font-family="sans-serif" font-size="14.00"> &#160;Bootstrap</text>
<polygon fill="#fdb462" stroke="transparent" points="491,-10 491,-30 511,-30 511,-10 491,-10"/>
<text text-anchor="start" x="514.67" y="-15.4" font-family="sans-serif" font-size="14.00"> &#160;Providers</text>
<polygon fill="#fb8072" stroke="transparent" points="587,-10 587,-30 607,-30 607,-10 587,-10"/>
<text text-anchor="start" x="610.73" y="-15.4" font-family="sans-serif" font-size="14.00"> &#160;Exports</text>
<g id="clust1" class="cluster">
<title>cluster_ContainerModule</title>
<polygon fill="none" stroke="black" stroke-dasharray="1,5" points="8,-70 8,-268 850,-268 850,-70 8,-70"/>
</g>
<g id="clust5" class="cluster">
<title>cluster_ContainerModule_exports</title>
<polygon fill="none" stroke="black" points="335,-208 335,-260 483,-260 483,-208 335,-208"/>
</g>
<g id="clust4" class="cluster">
<title>cluster_ContainerModule_imports</title>
<polygon fill="none" stroke="black" points="666,-78 666,-130 842,-130 842,-78 666,-78"/>
</g>
<g id="clust7" class="cluster">
<title>cluster_ContainerModule_providers</title>
<polygon fill="none" stroke="black" points="168,-78 168,-130 658,-130 658,-78 168,-78"/>
</g>
<g id="clust2" class="cluster">
<title>cluster_ContainerModule_declarations</title>
<polygon fill="none" stroke="black" points="16,-78 16,-130 160,-130 160,-78 16,-78"/>
</g>
<!-- AccountComponent -->
<g id="node1" class="node">
<title>AccountComponent</title>
<polygon fill="#ffffb3" stroke="black" points="152.26,-122 23.74,-122 23.74,-86 152.26,-86 152.26,-122"/>
<text text-anchor="middle" x="88" y="-99.8" font-family="Times,serif" font-size="14.00">AccountComponent</text>
</g>
<!-- ContainerModule -->
<g id="node2" class="node">
<title>ContainerModule</title>
<polygon fill="#8dd3c7" stroke="black" points="466.26,-187 463.26,-191 442.26,-191 439.26,-187 351.74,-187 351.74,-151 466.26,-151 466.26,-187"/>
<text text-anchor="middle" x="409" y="-164.8" font-family="Times,serif" font-size="14.00">ContainerModule</text>
</g>
<!-- AccountComponent&#45;&gt;ContainerModule -->
<g id="edge1" class="edge">
<title>AccountComponent&#45;&gt;ContainerModule</title>
<path fill="none" stroke="black" d="M88,-122.28C88,-143.32 88,-175 88,-175 88,-175 341.61,-175 341.61,-175"/>
<polygon fill="black" stroke="black" points="341.61,-178.5 351.61,-175 341.61,-171.5 341.61,-178.5"/>
</g>
<!-- AccountComponent  -->
<g id="node4" class="node">
<title>AccountComponent </title>
<polygon fill="#fb8072" stroke="black" points="475.26,-252 342.74,-252 342.74,-216 475.26,-216 475.26,-252"/>
<text text-anchor="middle" x="409" y="-229.8" font-family="Times,serif" font-size="14.00">AccountComponent </text>
</g>
<!-- ContainerModule&#45;&gt;AccountComponent  -->
<g id="edge3" class="edge">
<title>ContainerModule&#45;&gt;AccountComponent </title>
<path fill="none" stroke="black" stroke-dasharray="5,2" d="M409,-187.11C409,-187.11 409,-205.99 409,-205.99"/>
<polygon fill="black" stroke="black" points="405.5,-205.99 409,-215.99 412.5,-205.99 405.5,-205.99"/>
</g>
<!-- ContainerRoutingModule -->
<g id="node3" class="node">
<title>ContainerRoutingModule</title>
<polygon fill="#8dd3c7" stroke="black" points="833.88,-122 830.88,-126 809.88,-126 806.88,-122 674.12,-122 674.12,-86 833.88,-86 833.88,-122"/>
<text text-anchor="middle" x="754" y="-99.8" font-family="Times,serif" font-size="14.00">ContainerRoutingModule</text>
</g>
<!-- ContainerRoutingModule&#45;&gt;ContainerModule -->
<g id="edge2" class="edge">
<title>ContainerRoutingModule&#45;&gt;ContainerModule</title>
<path fill="none" stroke="black" d="M754,-122.28C754,-143.32 754,-175 754,-175 754,-175 476.36,-175 476.36,-175"/>
<polygon fill="black" stroke="black" points="476.36,-171.5 466.36,-175 476.36,-178.5 476.36,-171.5"/>
</g>
<!-- ContainerService -->
<g id="node5" class="node">
<title>ContainerService</title>
<ellipse fill="#fdb462" stroke="black" cx="572" cy="-104" rx="78.15" ry="18"/>
<text text-anchor="middle" x="572" y="-99.8" font-family="Times,serif" font-size="14.00">ContainerService</text>
</g>
<!-- ContainerService&#45;&gt;ContainerModule -->
<g id="edge4" class="edge">
<title>ContainerService&#45;&gt;ContainerModule</title>
<path fill="none" stroke="black" d="M572,-122.02C572,-139.37 572,-163 572,-163 572,-163 476.47,-163 476.47,-163"/>
<polygon fill="black" stroke="black" points="476.47,-159.5 466.47,-163 476.47,-166.5 476.47,-159.5"/>
</g>
<!-- GithubService -->
<g id="node6" class="node">
<title>GithubService</title>
<ellipse fill="#fdb462" stroke="black" cx="409" cy="-104" rx="66.63" ry="18"/>
<text text-anchor="middle" x="409" y="-99.8" font-family="Times,serif" font-size="14.00">GithubService</text>
</g>
<!-- GithubService&#45;&gt;ContainerModule -->
<g id="edge5" class="edge">
<title>GithubService&#45;&gt;ContainerModule</title>
<path fill="none" stroke="black" d="M409,-122.11C409,-122.11 409,-140.99 409,-140.99"/>
<polygon fill="black" stroke="black" points="405.5,-140.99 409,-150.99 412.5,-140.99 405.5,-140.99"/>
</g>
<!-- NetworkService -->
<g id="node7" class="node">
<title>NetworkService</title>
<ellipse fill="#fdb462" stroke="black" cx="250" cy="-104" rx="73.55" ry="18"/>
<text text-anchor="middle" x="250" y="-99.8" font-family="Times,serif" font-size="14.00">NetworkService</text>
</g>
<!-- NetworkService&#45;&gt;ContainerModule -->
<g id="edge6" class="edge">
<title>NetworkService&#45;&gt;ContainerModule</title>
<path fill="none" stroke="black" d="M250,-122.02C250,-139.37 250,-163 250,-163 250,-163 341.6,-163 341.6,-163"/>
<polygon fill="black" stroke="black" points="341.6,-166.5 351.6,-163 341.6,-159.5 341.6,-166.5"/>
</g>
</g>
</svg>
