<?xml version="1.0" encoding="UTF-8" standalone="no"?>
<!DOCTYPE svg PUBLIC "-//W3C//DTD SVG 1.1//EN"
 "http://www.w3.org/Graphics/SVG/1.1/DTD/svg11.dtd">
<!-- Generated by graphviz version 2.44.1 (20200629.0846)
 -->
<!-- Title: dependencies Pages: 1 -->
<svg width="866pt" height="284pt"
 viewBox="0.00 0.00 866.00 284.00" xmlns="http://www.w3.org/2000/svg" xmlns:xlink="http://www.w3.org/1999/xlink">
<g id="graph0" class="graph" transform="scale(1 1) rotate(0) translate(4 280)">
<title>dependencies</title>
<polygon fill="white" stroke="transparent" points="-4,4 -4,-280 862,-280 862,4 -4,4"/>
<text text-anchor="start" x="408.01" y="-42.4" font-family="sans-serif" font-weight="bold" font-size="14.00">Legend</text>
<polygon fill="#ffffb3" stroke="transparent" points="195,-10 195,-30 215,-30 215,-10 195,-10"/>
<text text-anchor="start" x="218.63" y="-15.4" font-family="sans-serif" font-size="14.00"> &#160;Declarations</text>
<polygon fill="#8dd3c7" stroke="transparent" points="308,-10 308,-30 328,-30 328,-10 308,-10"/>
<text text-anchor="start" x="331.73" y="-15.4" font-family="sans-serif" font-size="14.00"> &#160;Module</text>
<polygon fill="#80b1d3" stroke="transparent" points="394,-10 394,-30 414,-30 414,-10 394,-10"/>
<text text-anchor="start" x="417.78" y="-15.4" font-family="sans-serif" font-size="14.00"> &#160;Bootstrap</text>
<polygon fill="#fdb462" stroke="transparent" points="491,-10 491,-30 511,-30 511,-10 491,-10"/>
<text text-anchor="start" x="514.67" y="-15.4" font-family="sans-serif" font-size="14.00"> &#160;Providers</text>
<polygon fill="#fb8072" stroke="transparent" points="587,-10 587,-30 607,-30 607,-10 587,-10"/>
<text text-anchor="start" x="610.73" y="-15.4" font-family="sans-serif" font-size="14.00"> &#160;Exports</text>
<g id="clust1" class="cluster">
<title>cluster_ContainerModule</title>
<polygon fill="none" stroke="black" stroke-dasharray="1,5" points="8,-70 8,-268 850,-268 850,-70 8,-70"/>
</g>
<g id="clust5" class="cluster">
<title>cluster_ContainerModule_exports</title>
<polygon fill="none" stroke="black" points="346,-208 346,-260 494,-260 494,-208 346,-208"/>
</g>
<g id="clust2" class="cluster">
<title>cluster_ContainerModule_declarations</title>
<polygon fill="none" stroke="black" points="698,-78 698,-130 842,-130 842,-78 698,-78"/>
</g>
<g id="clust4" class="cluster">
<title>cluster_ContainerModule_imports</title>
<polygon fill="none" stroke="black" points="514,-78 514,-130 690,-130 690,-78 514,-78"/>
</g>
<g id="clust7" class="cluster">
<title>cluster_ContainerModule_providers</title>
<polygon fill="none" stroke="black" points="16,-78 16,-130 506,-130 506,-78 16,-78"/>
</g>
<!-- AccountComponent -->
<g id="node1" class="node">
<title>AccountComponent</title>
<polygon fill="#ffffb3" stroke="black" points="834.26,-122 705.74,-122 705.74,-86 834.26,-86 834.26,-122"/>
<text text-anchor="middle" x="770" y="-99.8" font-family="Times,serif" font-size="14.00">AccountComponent</text>
</g>
<!-- ContainerModule -->
<g id="node2" class="node">
<title>ContainerModule</title>
<polygon fill="#8dd3c7" stroke="black" points="477.26,-187 474.26,-191 453.26,-191 450.26,-187 362.74,-187 362.74,-151 477.26,-151 477.26,-187"/>
<text text-anchor="middle" x="420" y="-164.8" font-family="Times,serif" font-size="14.00">ContainerModule</text>
</g>
<!-- AccountComponent&#45;&gt;ContainerModule -->
<g id="edge1" class="edge">
<title>AccountComponent&#45;&gt;ContainerModule</title>
<path fill="none" stroke="black" d="M770,-122.28C770,-143.32 770,-175 770,-175 770,-175 487.4,-175 487.4,-175"/>
<polygon fill="black" stroke="black" points="487.4,-171.5 477.4,-175 487.4,-178.5 487.4,-171.5"/>
</g>
<!-- AccountComponent  -->
<g id="node4" class="node">
<title>AccountComponent </title>
<polygon fill="#fb8072" stroke="black" points="486.26,-252 353.74,-252 353.74,-216 486.26,-216 486.26,-252"/>
<text text-anchor="middle" x="420" y="-229.8" font-family="Times,serif" font-size="14.00">AccountComponent </text>
</g>
<!-- ContainerModule&#45;&gt;AccountComponent  -->
<g id="edge3" class="edge">
<title>ContainerModule&#45;&gt;AccountComponent </title>
<path fill="none" stroke="black" stroke-dasharray="5,2" d="M420,-187.11C420,-187.11 420,-205.99 420,-205.99"/>
<polygon fill="black" stroke="black" points="416.5,-205.99 420,-215.99 423.5,-205.99 416.5,-205.99"/>
</g>
<!-- ContainerRoutingModule -->
<g id="node3" class="node">
<title>ContainerRoutingModule</title>
<polygon fill="#8dd3c7" stroke="black" points="681.88,-122 678.88,-126 657.88,-126 654.88,-122 522.12,-122 522.12,-86 681.88,-86 681.88,-122"/>
<text text-anchor="middle" x="602" y="-99.8" font-family="Times,serif" font-size="14.00">ContainerRoutingModule</text>
</g>
<!-- ContainerRoutingModule&#45;&gt;ContainerModule -->
<g id="edge2" class="edge">
<title>ContainerRoutingModule&#45;&gt;ContainerModule</title>
<path fill="none" stroke="black" d="M602,-122.02C602,-139.37 602,-163 602,-163 602,-163 487.59,-163 487.59,-163"/>
<polygon fill="black" stroke="black" points="487.59,-159.5 477.59,-163 487.59,-166.5 487.59,-159.5"/>
</g>
<!-- ContainerService -->
<g id="node5" class="node">
<title>ContainerService</title>
<ellipse fill="#fdb462" stroke="black" cx="420" cy="-104" rx="78.15" ry="18"/>
<text text-anchor="middle" x="420" y="-99.8" font-family="Times,serif" font-size="14.00">ContainerService</text>
</g>
<!-- ContainerService&#45;&gt;ContainerModule -->
<g id="edge4" class="edge">
<title>ContainerService&#45;&gt;ContainerModule</title>
<path fill="none" stroke="black" d="M420,-122.11C420,-122.11 420,-140.99 420,-140.99"/>
<polygon fill="black" stroke="black" points="416.5,-140.99 420,-150.99 423.5,-140.99 416.5,-140.99"/>
</g>
<!-- GithubService -->
<g id="node6" class="node">
<title>GithubService</title>
<ellipse fill="#fdb462" stroke="black" cx="257" cy="-104" rx="66.63" ry="18"/>
<text text-anchor="middle" x="257" y="-99.8" font-family="Times,serif" font-size="14.00">GithubService</text>
</g>
<!-- GithubService&#45;&gt;ContainerModule -->
<g id="edge5" class="edge">
<title>GithubService&#45;&gt;ContainerModule</title>
<path fill="none" stroke="black" d="M257,-122.02C257,-139.37 257,-163 257,-163 257,-163 352.53,-163 352.53,-163"/>
<polygon fill="black" stroke="black" points="352.53,-166.5 362.53,-163 352.53,-159.5 352.53,-166.5"/>
</g>
<!-- NetworkService -->
<g id="node7" class="node">
<title>NetworkService</title>
<ellipse fill="#fdb462" stroke="black" cx="98" cy="-104" rx="73.55" ry="18"/>
<text text-anchor="middle" x="98" y="-99.8" font-family="Times,serif" font-size="14.00">NetworkService</text>
</g>
<!-- NetworkService&#45;&gt;ContainerModule -->
<g id="edge6" class="edge">
<title>NetworkService&#45;&gt;ContainerModule</title>
<path fill="none" stroke="black" d="M98,-122.28C98,-143.32 98,-175 98,-175 98,-175 352.43,-175 352.43,-175"/>
<polygon fill="black" stroke="black" points="352.43,-178.5 362.43,-175 352.43,-171.5 352.43,-178.5"/>
</g>
</g>
</svg>
