<?xml version="1.0" encoding="UTF-8" standalone="no"?>
<!DOCTYPE svg PUBLIC "-//W3C//DTD SVG 1.1//EN"
 "http://www.w3.org/Graphics/SVG/1.1/DTD/svg11.dtd">
<!-- Generated by graphviz version 2.44.1 (20200629.0846)
 -->
<!-- Title: dependencies Pages: 1 -->
<svg width="850pt" height="284pt"
 viewBox="0.00 0.00 850.00 284.00" xmlns="http://www.w3.org/2000/svg" xmlns:xlink="http://www.w3.org/1999/xlink">
<g id="graph0" class="graph" transform="scale(1 1) rotate(0) translate(4 280)">
<title>dependencies</title>
<polygon fill="white" stroke="transparent" points="-4,4 -4,-280 846,-280 846,4 -4,4"/>
<text text-anchor="start" x="400.01" y="-42.4" font-family="sans-serif" font-weight="bold" font-size="14.00">Legend</text>
<polygon fill="#ffffb3" stroke="transparent" points="187,-10 187,-30 207,-30 207,-10 187,-10"/>
<text text-anchor="start" x="210.63" y="-15.4" font-family="sans-serif" font-size="14.00"> &#160;Declarations</text>
<polygon fill="#8dd3c7" stroke="transparent" points="300,-10 300,-30 320,-30 320,-10 300,-10"/>
<text text-anchor="start" x="323.73" y="-15.4" font-family="sans-serif" font-size="14.00"> &#160;Module</text>
<polygon fill="#80b1d3" stroke="transparent" points="386,-10 386,-30 406,-30 406,-10 386,-10"/>
<text text-anchor="start" x="409.78" y="-15.4" font-family="sans-serif" font-size="14.00"> &#160;Bootstrap</text>
<polygon fill="#fdb462" stroke="transparent" points="483,-10 483,-30 503,-30 503,-10 483,-10"/>
<text text-anchor="start" x="506.67" y="-15.4" font-family="sans-serif" font-size="14.00"> &#160;Providers</text>
<polygon fill="#fb8072" stroke="transparent" points="579,-10 579,-30 599,-30 599,-10 579,-10"/>
<text text-anchor="start" x="602.73" y="-15.4" font-family="sans-serif" font-size="14.00"> &#160;Exports</text>
<g id="clust1" class="cluster">
<title>cluster_ContainerModule</title>
<polygon fill="none" stroke="black" stroke-dasharray="1,5" points="8,-70 8,-268 834,-268 834,-70 8,-70"/>
</g>
<g id="clust7" class="cluster">
<title>cluster_ContainerModule_providers</title>
<polygon fill="none" stroke="black" points="352,-78 352,-130 826,-130 826,-78 352,-78"/>
</g>
<g id="clust4" class="cluster">
<title>cluster_ContainerModule_imports</title>
<polygon fill="none" stroke="black" points="168,-78 168,-130 344,-130 344,-78 168,-78"/>
</g>
<g id="clust2" class="cluster">
<title>cluster_ContainerModule_declarations</title>
<polygon fill="none" stroke="black" points="16,-78 16,-130 160,-130 160,-78 16,-78"/>
</g>
<g id="clust5" class="cluster">
<title>cluster_ContainerModule_exports</title>
<polygon fill="none" stroke="black" points="360,-208 360,-260 508,-260 508,-208 360,-208"/>
</g>
<!-- AccountComponent -->
<g id="node1" class="node">
<title>AccountComponent</title>
<polygon fill="#ffffb3" stroke="black" points="152.26,-122 23.74,-122 23.74,-86 152.26,-86 152.26,-122"/>
<text text-anchor="middle" x="88" y="-99.8" font-family="Times,serif" font-size="14.00">AccountComponent</text>
</g>
<!-- ContainerModule -->
<g id="node2" class="node">
<title>ContainerModule</title>
<polygon fill="#8dd3c7" stroke="black" points="491.26,-187 488.26,-191 467.26,-191 464.26,-187 376.74,-187 376.74,-151 491.26,-151 491.26,-187"/>
<text text-anchor="middle" x="434" y="-164.8" font-family="Times,serif" font-size="14.00">ContainerModule</text>
</g>
<!-- AccountComponent&#45;&gt;ContainerModule -->
<g id="edge1" class="edge">
<title>AccountComponent&#45;&gt;ContainerModule</title>
<path fill="none" stroke="black" d="M88,-122.28C88,-143.32 88,-175 88,-175 88,-175 366.48,-175 366.48,-175"/>
<polygon fill="black" stroke="black" points="366.48,-178.5 376.48,-175 366.48,-171.5 366.48,-178.5"/>
</g>
<!-- AccountComponent  -->
<g id="node4" class="node">
<title>AccountComponent </title>
<polygon fill="#fb8072" stroke="black" points="500.26,-252 367.74,-252 367.74,-216 500.26,-216 500.26,-252"/>
<text text-anchor="middle" x="434" y="-229.8" font-family="Times,serif" font-size="14.00">AccountComponent </text>
</g>
<!-- ContainerModule&#45;&gt;AccountComponent  -->
<g id="edge3" class="edge">
<title>ContainerModule&#45;&gt;AccountComponent </title>
<path fill="none" stroke="black" stroke-dasharray="5,2" d="M434,-187.11C434,-187.11 434,-205.99 434,-205.99"/>
<polygon fill="black" stroke="black" points="430.5,-205.99 434,-215.99 437.5,-205.99 430.5,-205.99"/>
</g>
<!-- ContainerRoutingModule -->
<g id="node3" class="node">
<title>ContainerRoutingModule</title>
<polygon fill="#8dd3c7" stroke="black" points="335.88,-122 332.88,-126 311.88,-126 308.88,-122 176.12,-122 176.12,-86 335.88,-86 335.88,-122"/>
<text text-anchor="middle" x="256" y="-99.8" font-family="Times,serif" font-size="14.00">ContainerRoutingModule</text>
</g>
<!-- ContainerRoutingModule&#45;&gt;ContainerModule -->
<g id="edge2" class="edge">
<title>ContainerRoutingModule&#45;&gt;ContainerModule</title>
<path fill="none" stroke="black" d="M256,-122.02C256,-139.37 256,-163 256,-163 256,-163 366.7,-163 366.7,-163"/>
<polygon fill="black" stroke="black" points="366.7,-166.5 376.7,-163 366.7,-159.5 366.7,-166.5"/>
</g>
<!-- GithubService -->
<g id="node5" class="node">
<title>GithubService</title>
<ellipse fill="#fdb462" stroke="black" cx="751" cy="-104" rx="66.63" ry="18"/>
<text text-anchor="middle" x="751" y="-99.8" font-family="Times,serif" font-size="14.00">GithubService</text>
</g>
<!-- GithubService&#45;&gt;ContainerModule -->
<g id="edge4" class="edge">
<title>GithubService&#45;&gt;ContainerModule</title>
<path fill="none" stroke="black" d="M751,-122.28C751,-143.32 751,-175 751,-175 751,-175 501.41,-175 501.41,-175"/>
<polygon fill="black" stroke="black" points="501.41,-171.5 491.41,-175 501.41,-178.5 501.41,-171.5"/>
</g>
<!-- IdentityService -->
<g id="node6" class="node">
<title>IdentityService</title>
<ellipse fill="#fdb462" stroke="black" cx="596" cy="-104" rx="70.06" ry="18"/>
<text text-anchor="middle" x="596" y="-99.8" font-family="Times,serif" font-size="14.00">IdentityService</text>
</g>
<!-- IdentityService&#45;&gt;ContainerModule -->
<g id="edge5" class="edge">
<title>IdentityService&#45;&gt;ContainerModule</title>
<path fill="none" stroke="black" d="M596,-122.02C596,-139.37 596,-163 596,-163 596,-163 501.57,-163 501.57,-163"/>
<polygon fill="black" stroke="black" points="501.57,-159.5 491.57,-163 501.57,-166.5 501.57,-159.5"/>
</g>
<!-- NetworkService -->
<g id="node7" class="node">
<title>NetworkService</title>
<ellipse fill="#fdb462" stroke="black" cx="434" cy="-104" rx="73.55" ry="18"/>
<text text-anchor="middle" x="434" y="-99.8" font-family="Times,serif" font-size="14.00">NetworkService</text>
</g>
<!-- NetworkService&#45;&gt;ContainerModule -->
<g id="edge6" class="edge">
<title>NetworkService&#45;&gt;ContainerModule</title>
<path fill="none" stroke="black" d="M434,-122.11C434,-122.11 434,-140.99 434,-140.99"/>
<polygon fill="black" stroke="black" points="430.5,-140.99 434,-150.99 437.5,-140.99 430.5,-140.99"/>
</g>
</g>
</svg>
