<?xml version="1.0" encoding="UTF-8" standalone="no"?>
<!DOCTYPE svg PUBLIC "-//W3C//DTD SVG 1.1//EN"
 "http://www.w3.org/Graphics/SVG/1.1/DTD/svg11.dtd">
<!-- Generated by graphviz version 2.44.1 (20200629.0846)
 -->
<!-- Title: dependencies Pages: 1 -->
<svg width="1180pt" height="284pt"
 viewBox="0.00 0.00 1180.00 284.00" xmlns="http://www.w3.org/2000/svg" xmlns:xlink="http://www.w3.org/1999/xlink">
<g id="graph0" class="graph" transform="scale(1 1) rotate(0) translate(4 280)">
<title>dependencies</title>
<polygon fill="white" stroke="transparent" points="-4,4 -4,-280 1176,-280 1176,4 -4,4"/>
<text text-anchor="start" x="565.01" y="-42.4" font-family="sans-serif" font-weight="bold" font-size="14.00">Legend</text>
<polygon fill="#ffffb3" stroke="transparent" points="352,-10 352,-30 372,-30 372,-10 352,-10"/>
<text text-anchor="start" x="375.63" y="-15.4" font-family="sans-serif" font-size="14.00"> &#160;Declarations</text>
<polygon fill="#8dd3c7" stroke="transparent" points="465,-10 465,-30 485,-30 485,-10 465,-10"/>
<text text-anchor="start" x="488.73" y="-15.4" font-family="sans-serif" font-size="14.00"> &#160;Module</text>
<polygon fill="#80b1d3" stroke="transparent" points="551,-10 551,-30 571,-30 571,-10 551,-10"/>
<text text-anchor="start" x="574.78" y="-15.4" font-family="sans-serif" font-size="14.00"> &#160;Bootstrap</text>
<polygon fill="#fdb462" stroke="transparent" points="648,-10 648,-30 668,-30 668,-10 648,-10"/>
<text text-anchor="start" x="671.67" y="-15.4" font-family="sans-serif" font-size="14.00"> &#160;Providers</text>
<polygon fill="#fb8072" stroke="transparent" points="744,-10 744,-30 764,-30 764,-10 744,-10"/>
<text text-anchor="start" x="767.73" y="-15.4" font-family="sans-serif" font-size="14.00"> &#160;Exports</text>
<g id="clust1" class="cluster">
<title>cluster_ContainerModule</title>
<polygon fill="none" stroke="black" stroke-dasharray="1,5" points="8,-70 8,-268 1164,-268 1164,-70 8,-70"/>
</g>
<g id="clust2" class="cluster">
<title>cluster_ContainerModule_declarations</title>
<polygon fill="none" stroke="black" points="1012,-78 1012,-130 1156,-130 1156,-78 1012,-78"/>
</g>
<g id="clust5" class="cluster">
<title>cluster_ContainerModule_exports</title>
<polygon fill="none" stroke="black" points="497,-208 497,-260 645,-260 645,-208 497,-208"/>
</g>
<g id="clust4" class="cluster">
<title>cluster_ContainerModule_imports</title>
<polygon fill="none" stroke="black" points="828,-78 828,-130 1004,-130 1004,-78 828,-78"/>
</g>
<g id="clust7" class="cluster">
<title>cluster_ContainerModule_providers</title>
<polygon fill="none" stroke="black" points="16,-78 16,-130 820,-130 820,-78 16,-78"/>
</g>
<!-- AccountComponent -->
<g id="node1" class="node">
<title>AccountComponent</title>
<polygon fill="#ffffb3" stroke="black" points="1148.26,-122 1019.74,-122 1019.74,-86 1148.26,-86 1148.26,-122"/>
<text text-anchor="middle" x="1084" y="-99.8" font-family="Times,serif" font-size="14.00">AccountComponent</text>
</g>
<!-- ContainerModule -->
<g id="node2" class="node">
<title>ContainerModule</title>
<polygon fill="#8dd3c7" stroke="black" points="628.26,-187 625.26,-191 604.26,-191 601.26,-187 513.74,-187 513.74,-151 628.26,-151 628.26,-187"/>
<text text-anchor="middle" x="571" y="-164.8" font-family="Times,serif" font-size="14.00">ContainerModule</text>
</g>
<!-- AccountComponent&#45;&gt;ContainerModule -->
<g id="edge1" class="edge">
<title>AccountComponent&#45;&gt;ContainerModule</title>
<path fill="none" stroke="black" d="M1084,-122.29C1084,-144.21 1084,-178 1084,-178 1084,-178 638.35,-178 638.35,-178"/>
<polygon fill="black" stroke="black" points="638.35,-174.5 628.35,-178 638.35,-181.5 638.35,-174.5"/>
</g>
<!-- AccountComponent  -->
<g id="node4" class="node">
<title>AccountComponent </title>
<polygon fill="#fb8072" stroke="black" points="637.26,-252 504.74,-252 504.74,-216 637.26,-216 637.26,-252"/>
<text text-anchor="middle" x="571" y="-229.8" font-family="Times,serif" font-size="14.00">AccountComponent </text>
</g>
<!-- ContainerModule&#45;&gt;AccountComponent  -->
<g id="edge3" class="edge">
<title>ContainerModule&#45;&gt;AccountComponent </title>
<path fill="none" stroke="black" stroke-dasharray="5,2" d="M571,-187.11C571,-187.11 571,-205.99 571,-205.99"/>
<polygon fill="black" stroke="black" points="567.5,-205.99 571,-215.99 574.5,-205.99 567.5,-205.99"/>
</g>
<!-- ContainerRoutingModule -->
<g id="node3" class="node">
<title>ContainerRoutingModule</title>
<polygon fill="#8dd3c7" stroke="black" points="995.88,-122 992.88,-126 971.88,-126 968.88,-122 836.12,-122 836.12,-86 995.88,-86 995.88,-122"/>
<text text-anchor="middle" x="916" y="-99.8" font-family="Times,serif" font-size="14.00">ContainerRoutingModule</text>
</g>
<!-- ContainerRoutingModule&#45;&gt;ContainerModule -->
<g id="edge2" class="edge">
<title>ContainerRoutingModule&#45;&gt;ContainerModule</title>
<path fill="none" stroke="black" d="M916,-122.11C916,-141.34 916,-169 916,-169 916,-169 638.36,-169 638.36,-169"/>
<polygon fill="black" stroke="black" points="638.36,-165.5 628.36,-169 638.36,-172.5 638.36,-165.5"/>
</g>
<!-- ContainerService -->
<g id="node5" class="node">
<title>ContainerService</title>
<ellipse fill="#fdb462" stroke="black" cx="734" cy="-104" rx="78.15" ry="18"/>
<text text-anchor="middle" x="734" y="-99.8" font-family="Times,serif" font-size="14.00">ContainerService</text>
</g>
<!-- ContainerService&#45;&gt;ContainerModule -->
<g id="edge4" class="edge">
<title>ContainerService&#45;&gt;ContainerModule</title>
<path fill="none" stroke="black" d="M734,-122.03C734,-138.4 734,-160 734,-160 734,-160 638.47,-160 638.47,-160"/>
<polygon fill="black" stroke="black" points="638.47,-156.5 628.47,-160 638.47,-163.5 638.47,-156.5"/>
</g>
<!-- GithubService -->
<g id="node6" class="node">
<title>GithubService</title>
<ellipse fill="#fdb462" stroke="black" cx="571" cy="-104" rx="66.63" ry="18"/>
<text text-anchor="middle" x="571" y="-99.8" font-family="Times,serif" font-size="14.00">GithubService</text>
</g>
<!-- GithubService&#45;&gt;ContainerModule -->
<g id="edge5" class="edge">
<title>GithubService&#45;&gt;ContainerModule</title>
<path fill="none" stroke="black" d="M571,-122.11C571,-122.11 571,-140.99 571,-140.99"/>
<polygon fill="black" stroke="black" points="567.5,-140.99 571,-150.99 574.5,-140.99 567.5,-140.99"/>
</g>
<!-- IdentityService -->
<g id="node7" class="node">
<title>IdentityService</title>
<ellipse fill="#fdb462" stroke="black" cx="416" cy="-104" rx="70.06" ry="18"/>
<text text-anchor="middle" x="416" y="-99.8" font-family="Times,serif" font-size="14.00">IdentityService</text>
</g>
<!-- IdentityService&#45;&gt;ContainerModule -->
<g id="edge6" class="edge">
<title>IdentityService&#45;&gt;ContainerModule</title>
<path fill="none" stroke="black" d="M416,-122.03C416,-138.4 416,-160 416,-160 416,-160 503.72,-160 503.72,-160"/>
<polygon fill="black" stroke="black" points="503.72,-163.5 513.72,-160 503.72,-156.5 503.72,-163.5"/>
</g>
<!-- NetworkService -->
<g id="node8" class="node">
<title>NetworkService</title>
<ellipse fill="#fdb462" stroke="black" cx="254" cy="-104" rx="73.55" ry="18"/>
<text text-anchor="middle" x="254" y="-99.8" font-family="Times,serif" font-size="14.00">NetworkService</text>
</g>
<!-- NetworkService&#45;&gt;ContainerModule -->
<g id="edge7" class="edge">
<title>NetworkService&#45;&gt;ContainerModule</title>
<path fill="none" stroke="black" d="M254,-122.11C254,-141.34 254,-169 254,-169 254,-169 503.59,-169 503.59,-169"/>
<polygon fill="black" stroke="black" points="503.59,-172.5 513.59,-169 503.59,-165.5 503.59,-172.5"/>
</g>
<!-- StorageService -->
<g id="node9" class="node">
<title>StorageService</title>
<ellipse fill="#fdb462" stroke="black" cx="93" cy="-104" rx="69.48" ry="18"/>
<text text-anchor="middle" x="93" y="-99.8" font-family="Times,serif" font-size="14.00">StorageService</text>
</g>
<!-- StorageService&#45;&gt;ContainerModule -->
<g id="edge8" class="edge">
<title>StorageService&#45;&gt;ContainerModule</title>
<path fill="none" stroke="black" d="M93,-122.29C93,-144.21 93,-178 93,-178 93,-178 503.34,-178 503.34,-178"/>
<polygon fill="black" stroke="black" points="503.34,-181.5 513.34,-178 503.34,-174.5 503.34,-181.5"/>
</g>
</g>
</svg>
