<?xml version="1.0" encoding="UTF-8" standalone="no"?>
<!DOCTYPE svg PUBLIC "-//W3C//DTD SVG 1.1//EN"
 "http://www.w3.org/Graphics/SVG/1.1/DTD/svg11.dtd">
<!-- Generated by graphviz version 2.44.1 (20200629.0846)
 -->
<!-- Title: dependencies Pages: 1 -->
<svg width="1414pt" height="363pt"
 viewBox="0.00 0.00 1414.00 363.00" xmlns="http://www.w3.org/2000/svg" xmlns:xlink="http://www.w3.org/1999/xlink">
<g id="graph0" class="graph" transform="scale(1 1) rotate(0) translate(4 359)">
<title>dependencies</title>
<polygon fill="white" stroke="transparent" points="-4,4 -4,-359 1410,-359 1410,4 -4,4"/>
<text text-anchor="start" x="682.01" y="-42.4" font-family="sans-serif" font-weight="bold" font-size="14.00">Legend</text>
<polygon fill="#ffffb3" stroke="transparent" points="469,-10 469,-30 489,-30 489,-10 469,-10"/>
<text text-anchor="start" x="492.63" y="-15.4" font-family="sans-serif" font-size="14.00"> &#160;Declarations</text>
<polygon fill="#8dd3c7" stroke="transparent" points="582,-10 582,-30 602,-30 602,-10 582,-10"/>
<text text-anchor="start" x="605.73" y="-15.4" font-family="sans-serif" font-size="14.00"> &#160;Module</text>
<polygon fill="#80b1d3" stroke="transparent" points="668,-10 668,-30 688,-30 688,-10 668,-10"/>
<text text-anchor="start" x="691.78" y="-15.4" font-family="sans-serif" font-size="14.00"> &#160;Bootstrap</text>
<polygon fill="#fdb462" stroke="transparent" points="765,-10 765,-30 785,-30 785,-10 765,-10"/>
<text text-anchor="start" x="788.67" y="-15.4" font-family="sans-serif" font-size="14.00"> &#160;Providers</text>
<polygon fill="#fb8072" stroke="transparent" points="861,-10 861,-30 881,-30 881,-10 861,-10"/>
<text text-anchor="start" x="884.73" y="-15.4" font-family="sans-serif" font-size="14.00"> &#160;Exports</text>
<g id="clust1" class="cluster">
<title>cluster_AccountModule</title>
<polygon fill="none" stroke="black" stroke-dasharray="1,5" points="192,-70 192,-279 700,-279 700,-70 192,-70"/>
</g>
<g id="clust2" class="cluster">
<title>cluster_AccountModule_declarations</title>
<polygon fill="none" stroke="black" points="372,-78 372,-130 516,-130 516,-78 372,-78"/>
</g>
<g id="clust4" class="cluster">
<title>cluster_AccountModule_imports</title>
<polygon fill="none" stroke="black" points="524,-78 524,-130 692,-130 692,-78 524,-78"/>
</g>
<g id="clust5" class="cluster">
<title>cluster_AccountModule_exports</title>
<polygon fill="none" stroke="black" points="370,-219 370,-271 518,-271 518,-219 370,-219"/>
</g>
<g id="clust7" class="cluster">
<title>cluster_AccountModule_providers</title>
<polygon fill="none" stroke="black" points="200,-78 200,-130 364,-130 364,-78 200,-78"/>
</g>
<g id="clust14" class="cluster">
<title>cluster_AppModule</title>
<polygon fill="none" stroke="black" stroke-dasharray="1,5" points="764,-146 764,-347 1351,-347 1351,-146 764,-146"/>
</g>
<g id="clust15" class="cluster">
<title>cluster_AppModule_declarations</title>
<polygon fill="none" stroke="black" points="1221,-154 1221,-206 1343,-206 1343,-154 1221,-154"/>
</g>
<g id="clust17" class="cluster">
<title>cluster_AppModule_imports</title>
<polygon fill="none" stroke="black" points="772,-154 772,-206 1049,-206 1049,-154 772,-154"/>
</g>
<g id="clust19" class="cluster">
<title>cluster_AppModule_bootstrap</title>
<polygon fill="none" stroke="black" points="994,-287 994,-339 1118,-339 1118,-287 994,-287"/>
</g>
<g id="clust20" class="cluster">
<title>cluster_AppModule_providers</title>
<polygon fill="none" stroke="black" points="1057,-154 1057,-206 1213,-206 1213,-154 1057,-154"/>
</g>
<g id="clust27" class="cluster">
<title>cluster_ContainerModule</title>
<polygon fill="none" stroke="black" stroke-dasharray="1,5" points="708,-70 708,-138 1398,-138 1398,-70 708,-70"/>
</g>
<g id="clust30" class="cluster">
<title>cluster_ContainerModule_imports</title>
<polygon fill="none" stroke="black" points="1214,-78 1214,-130 1390,-130 1390,-78 1214,-78"/>
</g>
<g id="clust33" class="cluster">
<title>cluster_ContainerModule_providers</title>
<polygon fill="none" stroke="black" points="716,-78 716,-130 1206,-130 1206,-78 716,-78"/>
</g>
<g id="clust40" class="cluster">
<title>cluster_GithubModule</title>
<polygon fill="none" stroke="black" stroke-dasharray="1,5" points="8,-70 8,-206 184,-206 184,-70 8,-70"/>
</g>
<g id="clust43" class="cluster">
<title>cluster_GithubModule_imports</title>
<polygon fill="none" stroke="black" points="16,-78 16,-130 176,-130 176,-78 16,-78"/>
</g>
<!-- AccountComponent -->
<g id="node1" class="node">
<title>AccountComponent</title>
<polygon fill="#ffffb3" stroke="black" points="508.26,-122 379.74,-122 379.74,-86 508.26,-86 508.26,-122"/>
<text text-anchor="middle" x="444" y="-99.8" font-family="Times,serif" font-size="14.00">AccountComponent</text>
</g>
<!-- AccountModule -->
<g id="node2" class="node">
<title>AccountModule</title>
<polygon fill="#8dd3c7" stroke="black" points="497.48,-198 494.48,-202 473.48,-202 470.48,-198 390.52,-198 390.52,-162 497.48,-162 497.48,-198"/>
<text text-anchor="middle" x="444" y="-175.8" font-family="Times,serif" font-size="14.00">AccountModule</text>
</g>
<!-- AccountComponent&#45;&gt;AccountModule -->
<g id="edge1" class="edge">
<title>AccountComponent&#45;&gt;AccountModule</title>
<path fill="none" stroke="black" d="M444,-122.01C444,-122.01 444,-151.85 444,-151.85"/>
<polygon fill="black" stroke="black" points="440.5,-151.85 444,-161.85 447.5,-151.85 440.5,-151.85"/>
</g>
<!-- ContainerModule -->
<g id="node9" class="node">
<title>ContainerModule</title>
<polygon fill="#8dd3c7" stroke="black" points="894.26,-198 891.26,-202 870.26,-202 867.26,-198 779.74,-198 779.74,-162 894.26,-162 894.26,-198"/>
<text text-anchor="middle" x="837" y="-175.8" font-family="Times,serif" font-size="14.00">ContainerModule</text>
</g>
<!-- AccountComponent&#45;&gt;ContainerModule -->
<g id="edge10" class="edge">
<title>AccountComponent&#45;&gt;ContainerModule</title>
<path fill="none" stroke="black" d="M501.12,-122.01C501.12,-144.49 501.12,-180 501.12,-180 501.12,-180 769.64,-180 769.64,-180"/>
<polygon fill="black" stroke="black" points="769.64,-183.5 779.64,-180 769.64,-176.5 769.64,-183.5"/>
</g>
<!-- GithubModule -->
<g id="node16" class="node">
<title>GithubModule</title>
<polygon fill="#8dd3c7" stroke="black" points="176.44,-198 173.44,-202 152.44,-202 149.44,-198 77.56,-198 77.56,-162 176.44,-162 176.44,-198"/>
<text text-anchor="middle" x="127" y="-175.8" font-family="Times,serif" font-size="14.00">GithubModule</text>
</g>
<!-- AccountComponent&#45;&gt;GithubModule -->
<g id="edge16" class="edge">
<title>AccountComponent&#45;&gt;GithubModule</title>
<path fill="none" stroke="black" d="M383.25,-122.01C383.25,-144.49 383.25,-180 383.25,-180 383.25,-180 186.41,-180 186.41,-180"/>
<polygon fill="black" stroke="black" points="186.41,-176.5 176.41,-180 186.41,-183.5 186.41,-176.5"/>
</g>
<!-- AccountComponent  -->
<g id="node4" class="node">
<title>AccountComponent </title>
<polygon fill="#fb8072" stroke="black" points="510.26,-263 377.74,-263 377.74,-227 510.26,-227 510.26,-263"/>
<text text-anchor="middle" x="444" y="-240.8" font-family="Times,serif" font-size="14.00">AccountComponent </text>
</g>
<!-- AccountModule&#45;&gt;AccountComponent  -->
<g id="edge3" class="edge">
<title>AccountModule&#45;&gt;AccountComponent </title>
<path fill="none" stroke="black" stroke-dasharray="5,2" d="M444,-198.11C444,-198.11 444,-216.99 444,-216.99"/>
<polygon fill="black" stroke="black" points="440.5,-216.99 444,-226.99 447.5,-216.99 440.5,-216.99"/>
</g>
<!-- AccountRoutingModule -->
<g id="node3" class="node">
<title>AccountRoutingModule</title>
<polygon fill="#8dd3c7" stroke="black" points="684.09,-122 681.09,-126 660.09,-126 657.09,-122 531.91,-122 531.91,-86 684.09,-86 684.09,-122"/>
<text text-anchor="middle" x="608" y="-99.8" font-family="Times,serif" font-size="14.00">AccountRoutingModule</text>
</g>
<!-- AccountRoutingModule&#45;&gt;AccountModule -->
<g id="edge2" class="edge">
<title>AccountRoutingModule&#45;&gt;AccountModule</title>
<path fill="none" stroke="black" d="M608,-122.31C608,-142.15 608,-171 608,-171 608,-171 507.7,-171 507.7,-171"/>
<polygon fill="black" stroke="black" points="507.7,-167.5 497.7,-171 507.7,-174.5 507.7,-167.5"/>
</g>
<!-- MessageService -->
<g id="node5" class="node">
<title>MessageService</title>
<ellipse fill="#fdb462" stroke="black" cx="282" cy="-104" rx="73.55" ry="18"/>
<text text-anchor="middle" x="282" y="-99.8" font-family="Times,serif" font-size="14.00">MessageService</text>
</g>
<!-- MessageService&#45;&gt;AccountModule -->
<g id="edge4" class="edge">
<title>MessageService&#45;&gt;AccountModule</title>
<path fill="none" stroke="black" d="M282,-122.31C282,-142.15 282,-171 282,-171 282,-171 380.51,-171 380.51,-171"/>
<polygon fill="black" stroke="black" points="380.51,-174.5 390.51,-171 380.51,-167.5 380.51,-174.5"/>
</g>
<!-- AppComponent -->
<g id="node6" class="node">
<title>AppComponent</title>
<polygon fill="#ffffb3" stroke="black" points="1334.94,-198 1229.06,-198 1229.06,-162 1334.94,-162 1334.94,-198"/>
<text text-anchor="middle" x="1282" y="-175.8" font-family="Times,serif" font-size="14.00">AppComponent</text>
</g>
<!-- AppModule -->
<g id="node7" class="node">
<title>AppModule</title>
<polygon fill="#8dd3c7" stroke="black" points="1097.66,-263 1094.66,-267 1073.66,-267 1070.66,-263 1014.34,-263 1014.34,-227 1097.66,-227 1097.66,-263"/>
<text text-anchor="middle" x="1056" y="-240.8" font-family="Times,serif" font-size="14.00">AppModule</text>
</g>
<!-- AppComponent&#45;&gt;AppModule -->
<g id="edge5" class="edge">
<title>AppComponent&#45;&gt;AppModule</title>
<path fill="none" stroke="black" d="M1282,-198.11C1282,-217.34 1282,-245 1282,-245 1282,-245 1107.72,-245 1107.72,-245"/>
<polygon fill="black" stroke="black" points="1107.72,-241.5 1097.72,-245 1107.72,-248.5 1107.72,-241.5"/>
</g>
<!-- AppComponent  -->
<g id="node10" class="node">
<title>AppComponent </title>
<polygon fill="#80b1d3" stroke="black" points="1110.44,-331 1001.56,-331 1001.56,-295 1110.44,-295 1110.44,-331"/>
<text text-anchor="middle" x="1056" y="-308.8" font-family="Times,serif" font-size="14.00">AppComponent </text>
</g>
<!-- AppModule&#45;&gt;AppComponent  -->
<g id="edge8" class="edge">
<title>AppModule&#45;&gt;AppComponent </title>
<path fill="none" stroke="black" stroke-dasharray="1,5" d="M1056,-263.22C1056,-263.22 1056,-284.73 1056,-284.73"/>
<polygon fill="black" stroke="black" points="1052.5,-284.73 1056,-294.73 1059.5,-284.73 1052.5,-284.73"/>
</g>
<!-- AppRoutingModule -->
<g id="node8" class="node">
<title>AppRoutingModule</title>
<polygon fill="#8dd3c7" stroke="black" points="1041.27,-198 1038.27,-202 1017.27,-202 1014.27,-198 912.73,-198 912.73,-162 1041.27,-162 1041.27,-198"/>
<text text-anchor="middle" x="977" y="-175.8" font-family="Times,serif" font-size="14.00">AppRoutingModule</text>
</g>
<!-- AppRoutingModule&#45;&gt;AppModule -->
<g id="edge6" class="edge">
<title>AppRoutingModule&#45;&gt;AppModule</title>
<path fill="none" stroke="black" d="M1027.78,-198.11C1027.78,-198.11 1027.78,-216.99 1027.78,-216.99"/>
<polygon fill="black" stroke="black" points="1024.28,-216.99 1027.78,-226.99 1031.28,-216.99 1024.28,-216.99"/>
</g>
<!-- ContainerModule&#45;&gt;AccountComponent  -->
<g id="edge12" class="edge">
<title>ContainerModule&#45;&gt;AccountComponent </title>
<path fill="none" stroke="black" stroke-dasharray="5,2" d="M779.51,-189C684.41,-189 504.75,-189 504.75,-189 504.75,-189 504.75,-216.97 504.75,-216.97"/>
<polygon fill="black" stroke="black" points="501.25,-216.97 504.75,-226.97 508.25,-216.97 501.25,-216.97"/>
</g>
<!-- ContainerModule&#45;&gt;AppModule -->
<g id="edge7" class="edge">
<title>ContainerModule&#45;&gt;AppModule</title>
<path fill="none" stroke="black" d="M837,-198.11C837,-217.34 837,-245 837,-245 837,-245 1004.29,-245 1004.29,-245"/>
<polygon fill="black" stroke="black" points="1004.29,-248.5 1014.29,-245 1004.29,-241.5 1004.29,-248.5"/>
</g>
<!-- IdentityService -->
<g id="node11" class="node">
<title>IdentityService</title>
<ellipse fill="#fdb462" stroke="black" cx="1135" cy="-180" rx="70.06" ry="18"/>
<text text-anchor="middle" x="1135" y="-175.8" font-family="Times,serif" font-size="14.00">IdentityService</text>
</g>
<!-- IdentityService&#45;&gt;AppModule -->
<g id="edge9" class="edge">
<title>IdentityService&#45;&gt;AppModule</title>
<path fill="none" stroke="black" d="M1081.4,-191.62C1081.4,-191.62 1081.4,-216.85 1081.4,-216.85"/>
<polygon fill="black" stroke="black" points="1077.9,-216.85 1081.4,-226.85 1084.9,-216.85 1077.9,-216.85"/>
</g>
<!-- ContainerRoutingModule -->
<g id="node12" class="node">
<title>ContainerRoutingModule</title>
<polygon fill="#8dd3c7" stroke="black" points="1381.88,-122 1378.88,-126 1357.88,-126 1354.88,-122 1222.12,-122 1222.12,-86 1381.88,-86 1381.88,-122"/>
<text text-anchor="middle" x="1302" y="-99.8" font-family="Times,serif" font-size="14.00">ContainerRoutingModule</text>
</g>
<!-- ContainerRoutingModule&#45;&gt;ContainerModule -->
<g id="edge11" class="edge">
<title>ContainerRoutingModule&#45;&gt;ContainerModule</title>
<path fill="none" stroke="black" d="M1225.67,-122.04C1225.67,-134.56 1225.67,-149 1225.67,-149 1225.67,-149 889.77,-149 889.77,-149 889.77,-149 889.77,-151.97 889.77,-151.97"/>
<polygon fill="black" stroke="black" points="886.27,-151.97 889.77,-161.97 893.27,-151.97 886.27,-151.97"/>
</g>
<!-- ContainerService -->
<g id="node13" class="node">
<title>ContainerService</title>
<ellipse fill="#fdb462" stroke="black" cx="954" cy="-104" rx="78.15" ry="18"/>
<text text-anchor="middle" x="954" y="-99.8" font-family="Times,serif" font-size="14.00">ContainerService</text>
</g>
<!-- ContainerService&#45;&gt;ContainerModule -->
<g id="edge13" class="edge">
<title>ContainerService&#45;&gt;ContainerModule</title>
<path fill="none" stroke="black" d="M880.54,-110.22C880.54,-110.22 880.54,-151.76 880.54,-151.76"/>
<polygon fill="black" stroke="black" points="877.04,-151.76 880.54,-161.76 884.04,-151.76 877.04,-151.76"/>
</g>
<!-- GithubService -->
<g id="node14" class="node">
<title>GithubService</title>
<ellipse fill="#fdb462" stroke="black" cx="791" cy="-104" rx="66.63" ry="18"/>
<text text-anchor="middle" x="791" y="-99.8" font-family="Times,serif" font-size="14.00">GithubService</text>
</g>
<!-- GithubService&#45;&gt;ContainerModule -->
<g id="edge14" class="edge">
<title>GithubService&#45;&gt;ContainerModule</title>
<path fill="none" stroke="black" d="M818.72,-120.49C818.72,-120.49 818.72,-151.95 818.72,-151.95"/>
<polygon fill="black" stroke="black" points="815.22,-151.95 818.72,-161.95 822.22,-151.95 815.22,-151.95"/>
</g>
<!-- NetworkService -->
<g id="node15" class="node">
<title>NetworkService</title>
<ellipse fill="#fdb462" stroke="black" cx="1124" cy="-104" rx="73.55" ry="18"/>
<text text-anchor="middle" x="1124" y="-99.8" font-family="Times,serif" font-size="14.00">NetworkService</text>
</g>
<!-- NetworkService&#45;&gt;ContainerModule -->
<g id="edge15" class="edge">
<title>NetworkService&#45;&gt;ContainerModule</title>
<path fill="none" stroke="black" d="M1057.6,-112.07C1057.6,-121.55 1057.6,-136 1057.6,-136 1057.6,-136 885.15,-136 885.15,-136 885.15,-136 885.15,-151.85 885.15,-151.85"/>
<polygon fill="black" stroke="black" points="881.65,-151.85 885.15,-161.85 888.65,-151.85 881.65,-151.85"/>
</g>
<!-- GithubModule&#45;&gt;AccountComponent  -->
<g id="edge18" class="edge">
<title>GithubModule&#45;&gt;AccountComponent </title>
<path fill="none" stroke="black" stroke-dasharray="5,2" d="M176.49,-189C251.9,-189 386.88,-189 386.88,-189 386.88,-189 386.88,-216.97 386.88,-216.97"/>
<polygon fill="black" stroke="black" points="383.38,-216.97 386.88,-226.97 390.38,-216.97 383.38,-216.97"/>
</g>
<!-- GithubRoutingModule -->
<g id="node17" class="node">
<title>GithubRoutingModule</title>
<polygon fill="#8dd3c7" stroke="black" points="167.56,-122 164.56,-126 143.56,-126 140.56,-122 24.44,-122 24.44,-86 167.56,-86 167.56,-122"/>
<text text-anchor="middle" x="96" y="-99.8" font-family="Times,serif" font-size="14.00">GithubRoutingModule</text>
</g>
<!-- GithubRoutingModule&#45;&gt;GithubModule -->
<g id="edge17" class="edge">
<title>GithubRoutingModule&#45;&gt;GithubModule</title>
<path fill="none" stroke="black" d="M122.78,-122.01C122.78,-122.01 122.78,-151.85 122.78,-151.85"/>
<polygon fill="black" stroke="black" points="119.28,-151.85 122.78,-161.85 126.28,-151.85 119.28,-151.85"/>
</g>
</g>
</svg>
