<?xml version="1.0" encoding="UTF-8" standalone="no"?>
<!DOCTYPE svg PUBLIC "-//W3C//DTD SVG 1.1//EN"
 "http://www.w3.org/Graphics/SVG/1.1/DTD/svg11.dtd">
<!-- Generated by graphviz version 2.44.1 (20200629.0846)
 -->
<!-- Title: dependencies Pages: 1 -->
<svg width="1418pt" height="284pt"
 viewBox="0.00 0.00 1418.00 284.00" xmlns="http://www.w3.org/2000/svg" xmlns:xlink="http://www.w3.org/1999/xlink">
<g id="graph0" class="graph" transform="scale(1 1) rotate(0) translate(4 280)">
<title>dependencies</title>
<polygon fill="white" stroke="transparent" points="-4,4 -4,-280 1414,-280 1414,4 -4,4"/>
<text text-anchor="start" x="684.01" y="-42.4" font-family="sans-serif" font-weight="bold" font-size="14.00">Legend</text>
<polygon fill="#ffffb3" stroke="transparent" points="471,-10 471,-30 491,-30 491,-10 471,-10"/>
<text text-anchor="start" x="494.63" y="-15.4" font-family="sans-serif" font-size="14.00"> &#160;Declarations</text>
<polygon fill="#8dd3c7" stroke="transparent" points="584,-10 584,-30 604,-30 604,-10 584,-10"/>
<text text-anchor="start" x="607.73" y="-15.4" font-family="sans-serif" font-size="14.00"> &#160;Module</text>
<polygon fill="#80b1d3" stroke="transparent" points="670,-10 670,-30 690,-30 690,-10 670,-10"/>
<text text-anchor="start" x="693.78" y="-15.4" font-family="sans-serif" font-size="14.00"> &#160;Bootstrap</text>
<polygon fill="#fdb462" stroke="transparent" points="767,-10 767,-30 787,-30 787,-10 767,-10"/>
<text text-anchor="start" x="790.67" y="-15.4" font-family="sans-serif" font-size="14.00"> &#160;Providers</text>
<polygon fill="#fb8072" stroke="transparent" points="863,-10 863,-30 883,-30 883,-10 863,-10"/>
<text text-anchor="start" x="886.73" y="-15.4" font-family="sans-serif" font-size="14.00"> &#160;Exports</text>
<g id="clust1" class="cluster">
<title>cluster_AccountModule</title>
<polygon fill="none" stroke="black" stroke-dasharray="1,5" points="8,-70 8,-195 168,-195 168,-70 8,-70"/>
</g>
<g id="clust2" class="cluster">
<title>cluster_AccountModule_declarations</title>
<polygon fill="none" stroke="black" points="16,-78 16,-130 160,-130 160,-78 16,-78"/>
</g>
<g id="clust8" class="cluster">
<title>cluster_AppModule</title>
<polygon fill="none" stroke="black" stroke-dasharray="1,5" points="176,-70 176,-268 466,-268 466,-70 176,-70"/>
</g>
<g id="clust9" class="cluster">
<title>cluster_AppModule_declarations</title>
<polygon fill="none" stroke="black" points="336,-78 336,-130 458,-130 458,-78 336,-78"/>
</g>
<g id="clust11" class="cluster">
<title>cluster_AppModule_imports</title>
<polygon fill="none" stroke="black" points="184,-78 184,-130 328,-130 328,-78 184,-78"/>
</g>
<g id="clust13" class="cluster">
<title>cluster_AppModule_bootstrap</title>
<polygon fill="none" stroke="black" points="264,-208 264,-260 388,-260 388,-208 264,-208"/>
</g>
<g id="clust21" class="cluster">
<title>cluster_ContainerModule</title>
<polygon fill="none" stroke="black" stroke-dasharray="1,5" points="474,-70 474,-268 1280,-268 1280,-70 474,-70"/>
</g>
<g id="clust22" class="cluster">
<title>cluster_ContainerModule_declarations</title>
<polygon fill="none" stroke="black" points="1120,-78 1120,-130 1272,-130 1272,-78 1120,-78"/>
</g>
<g id="clust25" class="cluster">
<title>cluster_ContainerModule_exports</title>
<polygon fill="none" stroke="black" points="998,-208 998,-260 1154,-260 1154,-208 998,-208"/>
</g>
<g id="clust27" class="cluster">
<title>cluster_ContainerModule_providers</title>
<polygon fill="none" stroke="black" points="482,-78 482,-130 1112,-130 1112,-78 482,-78"/>
</g>
<g id="clust34" class="cluster">
<title>cluster_GithubModule</title>
<polygon fill="none" stroke="black" stroke-dasharray="1,5" points="1288,-143 1288,-195 1402,-195 1402,-143 1288,-143"/>
</g>
<!-- AccountComponent -->
<g id="node1" class="node">
<title>AccountComponent</title>
<polygon fill="#ffffb3" stroke="black" points="152.26,-122 23.74,-122 23.74,-86 152.26,-86 152.26,-122"/>
<text text-anchor="middle" x="88" y="-99.8" font-family="Times,serif" font-size="14.00">AccountComponent</text>
</g>
<!-- AccountModule -->
<g id="node2" class="node">
<title>AccountModule</title>
<polygon fill="#8dd3c7" stroke="black" points="141.48,-187 138.48,-191 117.48,-191 114.48,-187 34.52,-187 34.52,-151 141.48,-151 141.48,-187"/>
<text text-anchor="middle" x="88" y="-164.8" font-family="Times,serif" font-size="14.00">AccountModule</text>
</g>
<!-- AccountComponent&#45;&gt;AccountModule -->
<g id="edge1" class="edge">
<title>AccountComponent&#45;&gt;AccountModule</title>
<path fill="none" stroke="black" d="M88,-122.11C88,-122.11 88,-140.99 88,-140.99"/>
<polygon fill="black" stroke="black" points="84.5,-140.99 88,-150.99 91.5,-140.99 84.5,-140.99"/>
</g>
<!-- AppComponent -->
<g id="node3" class="node">
<title>AppComponent</title>
<polygon fill="#ffffb3" stroke="black" points="449.94,-122 344.06,-122 344.06,-86 449.94,-86 449.94,-122"/>
<text text-anchor="middle" x="397" y="-99.8" font-family="Times,serif" font-size="14.00">AppComponent</text>
</g>
<!-- AppModule -->
<g id="node4" class="node">
<title>AppModule</title>
<polygon fill="#8dd3c7" stroke="black" points="367.66,-187 364.66,-191 343.66,-191 340.66,-187 284.34,-187 284.34,-151 367.66,-151 367.66,-187"/>
<text text-anchor="middle" x="326" y="-164.8" font-family="Times,serif" font-size="14.00">AppModule</text>
</g>
<!-- AppComponent&#45;&gt;AppModule -->
<g id="edge2" class="edge">
<title>AppComponent&#45;&gt;AppModule</title>
<path fill="none" stroke="black" d="M356.05,-122.11C356.05,-122.11 356.05,-140.99 356.05,-140.99"/>
<polygon fill="black" stroke="black" points="352.55,-140.99 356.05,-150.99 359.55,-140.99 352.55,-140.99"/>
</g>
<!-- AppComponent  -->
<g id="node6" class="node">
<title>AppComponent </title>
<polygon fill="#80b1d3" stroke="black" points="380.44,-252 271.56,-252 271.56,-216 380.44,-216 380.44,-252"/>
<text text-anchor="middle" x="326" y="-229.8" font-family="Times,serif" font-size="14.00">AppComponent </text>
</g>
<!-- AppModule&#45;&gt;AppComponent  -->
<g id="edge4" class="edge">
<title>AppModule&#45;&gt;AppComponent </title>
<path fill="none" stroke="black" stroke-dasharray="1,5" d="M326,-187.11C326,-187.11 326,-205.99 326,-205.99"/>
<polygon fill="black" stroke="black" points="322.5,-205.99 326,-215.99 329.5,-205.99 322.5,-205.99"/>
</g>
<!-- AppRoutingModule -->
<g id="node5" class="node">
<title>AppRoutingModule</title>
<polygon fill="#8dd3c7" stroke="black" points="320.27,-122 317.27,-126 296.27,-126 293.27,-122 191.73,-122 191.73,-86 320.27,-86 320.27,-122"/>
<text text-anchor="middle" x="256" y="-99.8" font-family="Times,serif" font-size="14.00">AppRoutingModule</text>
</g>
<!-- AppRoutingModule&#45;&gt;AppModule -->
<g id="edge3" class="edge">
<title>AppRoutingModule&#45;&gt;AppModule</title>
<path fill="none" stroke="black" d="M302.28,-122.11C302.28,-122.11 302.28,-140.99 302.28,-140.99"/>
<polygon fill="black" stroke="black" points="298.78,-140.99 302.28,-150.99 305.78,-140.99 298.78,-140.99"/>
</g>
<!-- ContainerComponent -->
<g id="node7" class="node">
<title>ContainerComponent</title>
<polygon fill="#ffffb3" stroke="black" points="1264.04,-122 1127.96,-122 1127.96,-86 1264.04,-86 1264.04,-122"/>
<text text-anchor="middle" x="1196" y="-99.8" font-family="Times,serif" font-size="14.00">ContainerComponent</text>
</g>
<!-- ContainerModule -->
<g id="node8" class="node">
<title>ContainerModule</title>
<polygon fill="#8dd3c7" stroke="black" points="1016.26,-187 1013.26,-191 992.26,-191 989.26,-187 901.74,-187 901.74,-151 1016.26,-151 1016.26,-187"/>
<text text-anchor="middle" x="959" y="-164.8" font-family="Times,serif" font-size="14.00">ContainerModule</text>
</g>
<!-- ContainerComponent&#45;&gt;ContainerModule -->
<g id="edge5" class="edge">
<title>ContainerComponent&#45;&gt;ContainerModule</title>
<path fill="none" stroke="black" d="M1133.83,-122.02C1133.83,-139.37 1133.83,-163 1133.83,-163 1133.83,-163 1026.73,-163 1026.73,-163"/>
<polygon fill="black" stroke="black" points="1026.73,-159.5 1016.73,-163 1026.73,-166.5 1026.73,-159.5"/>
</g>
<!-- GithubModule -->
<g id="node14" class="node">
<title>GithubModule</title>
<polygon fill="#8dd3c7" stroke="black" points="1394.44,-187 1391.44,-191 1370.44,-191 1367.44,-187 1295.56,-187 1295.56,-151 1394.44,-151 1394.44,-187"/>
<text text-anchor="middle" x="1345" y="-164.8" font-family="Times,serif" font-size="14.00">GithubModule</text>
</g>
<!-- ContainerComponent&#45;&gt;GithubModule -->
<g id="edge11" class="edge">
<title>ContainerComponent&#45;&gt;GithubModule</title>
<path fill="none" stroke="black" d="M1264.39,-104C1303.56,-104 1345,-104 1345,-104 1345,-104 1345,-140.89 1345,-140.89"/>
<polygon fill="black" stroke="black" points="1341.5,-140.89 1345,-150.89 1348.5,-140.89 1341.5,-140.89"/>
</g>
<!-- ContainerComponent  -->
<g id="node9" class="node">
<title>ContainerComponent </title>
<polygon fill="#fb8072" stroke="black" points="1146.04,-252 1005.96,-252 1005.96,-216 1146.04,-216 1146.04,-252"/>
<text text-anchor="middle" x="1076" y="-229.8" font-family="Times,serif" font-size="14.00">ContainerComponent </text>
</g>
<!-- ContainerModule&#45;&gt;ContainerComponent  -->
<g id="edge6" class="edge">
<title>ContainerModule&#45;&gt;ContainerComponent </title>
<path fill="none" stroke="black" stroke-dasharray="5,2" d="M1011.18,-187.11C1011.18,-187.11 1011.18,-205.99 1011.18,-205.99"/>
<polygon fill="black" stroke="black" points="1007.68,-205.99 1011.18,-215.99 1014.68,-205.99 1007.68,-205.99"/>
</g>
<!-- GithubService -->
<g id="node10" class="node">
<title>GithubService</title>
<ellipse fill="#fdb462" stroke="black" cx="1037" cy="-104" rx="66.63" ry="18"/>
<text text-anchor="middle" x="1037" y="-99.8" font-family="Times,serif" font-size="14.00">GithubService</text>
</g>
<!-- GithubService&#45;&gt;ContainerModule -->
<g id="edge7" class="edge">
<title>GithubService&#45;&gt;ContainerModule</title>
<path fill="none" stroke="black" d="M993.28,-117.78C993.28,-117.78 993.28,-140.55 993.28,-140.55"/>
<polygon fill="black" stroke="black" points="989.78,-140.55 993.28,-150.55 996.78,-140.55 989.78,-140.55"/>
</g>
<!-- IdentityService -->
<g id="node11" class="node">
<title>IdentityService</title>
<ellipse fill="#fdb462" stroke="black" cx="882" cy="-104" rx="70.06" ry="18"/>
<text text-anchor="middle" x="882" y="-99.8" font-family="Times,serif" font-size="14.00">IdentityService</text>
</g>
<!-- IdentityService&#45;&gt;ContainerModule -->
<g id="edge8" class="edge">
<title>IdentityService&#45;&gt;ContainerModule</title>
<path fill="none" stroke="black" d="M926.83,-118.1C926.83,-118.1 926.83,-140.72 926.83,-140.72"/>
<polygon fill="black" stroke="black" points="923.33,-140.72 926.83,-150.72 930.33,-140.72 923.33,-140.72"/>
</g>
<!-- NetworkService -->
<g id="node12" class="node">
<title>NetworkService</title>
<ellipse fill="#fdb462" stroke="black" cx="720" cy="-104" rx="73.55" ry="18"/>
<text text-anchor="middle" x="720" y="-99.8" font-family="Times,serif" font-size="14.00">NetworkService</text>
</g>
<!-- NetworkService&#45;&gt;ContainerModule -->
<g id="edge9" class="edge">
<title>NetworkService&#45;&gt;ContainerModule</title>
<path fill="none" stroke="black" d="M720,-122.02C720,-139.37 720,-163 720,-163 720,-163 891.45,-163 891.45,-163"/>
<polygon fill="black" stroke="black" points="891.45,-166.5 901.45,-163 891.45,-159.5 891.45,-166.5"/>
</g>
<!-- StorageService -->
<g id="node13" class="node">
<title>StorageService</title>
<ellipse fill="#fdb462" stroke="black" cx="559" cy="-104" rx="69.48" ry="18"/>
<text text-anchor="middle" x="559" y="-99.8" font-family="Times,serif" font-size="14.00">StorageService</text>
</g>
<!-- StorageService&#45;&gt;ContainerModule -->
<g id="edge10" class="edge">
<title>StorageService&#45;&gt;ContainerModule</title>
<path fill="none" stroke="black" d="M559,-122.28C559,-143.32 559,-175 559,-175 559,-175 891.69,-175 891.69,-175"/>
<polygon fill="black" stroke="black" points="891.69,-178.5 901.69,-175 891.69,-171.5 891.69,-178.5"/>
</g>
<!-- GithubModule&#45;&gt;ContainerComponent  -->
<g id="edge12" class="edge">
<title>GithubModule&#45;&gt;ContainerComponent </title>
<path fill="none" stroke="black" stroke-dasharray="5,2" d="M1295.62,-175C1234.94,-175 1139.92,-175 1139.92,-175 1139.92,-175 1139.92,-205.98 1139.92,-205.98"/>
<polygon fill="black" stroke="black" points="1136.42,-205.98 1139.92,-215.98 1143.42,-205.98 1136.42,-205.98"/>
</g>
</g>
</svg>
