<?xml version="1.0" encoding="UTF-8" standalone="no"?>
<!DOCTYPE svg PUBLIC "-//W3C//DTD SVG 1.1//EN"
 "http://www.w3.org/Graphics/SVG/1.1/DTD/svg11.dtd">
<!-- Generated by graphviz version 2.44.1 (20200629.0846)
 -->
<!-- Title: dependencies Pages: 1 -->
<svg width="1557pt" height="363pt"
 viewBox="0.00 0.00 1557.00 363.00" xmlns="http://www.w3.org/2000/svg" xmlns:xlink="http://www.w3.org/1999/xlink">
<g id="graph0" class="graph" transform="scale(1 1) rotate(0) translate(4 359)">
<title>dependencies</title>
<polygon fill="white" stroke="transparent" points="-4,4 -4,-359 1553,-359 1553,4 -4,4"/>
<text text-anchor="start" x="753.51" y="-42.4" font-family="sans-serif" font-weight="bold" font-size="14.00">Legend</text>
<polygon fill="#ffffb3" stroke="transparent" points="540.5,-10 540.5,-30 560.5,-30 560.5,-10 540.5,-10"/>
<text text-anchor="start" x="564.13" y="-15.4" font-family="sans-serif" font-size="14.00"> &#160;Declarations</text>
<polygon fill="#8dd3c7" stroke="transparent" points="653.5,-10 653.5,-30 673.5,-30 673.5,-10 653.5,-10"/>
<text text-anchor="start" x="677.23" y="-15.4" font-family="sans-serif" font-size="14.00"> &#160;Module</text>
<polygon fill="#80b1d3" stroke="transparent" points="739.5,-10 739.5,-30 759.5,-30 759.5,-10 739.5,-10"/>
<text text-anchor="start" x="763.28" y="-15.4" font-family="sans-serif" font-size="14.00"> &#160;Bootstrap</text>
<polygon fill="#fdb462" stroke="transparent" points="836.5,-10 836.5,-30 856.5,-30 856.5,-10 836.5,-10"/>
<text text-anchor="start" x="860.17" y="-15.4" font-family="sans-serif" font-size="14.00"> &#160;Providers</text>
<polygon fill="#fb8072" stroke="transparent" points="932.5,-10 932.5,-30 952.5,-30 952.5,-10 932.5,-10"/>
<text text-anchor="start" x="956.23" y="-15.4" font-family="sans-serif" font-size="14.00"> &#160;Exports</text>
<g id="clust1" class="cluster">
<title>cluster_AccountModule</title>
<polygon fill="none" stroke="black" stroke-dasharray="1,5" points="192,-70 192,-279 528,-279 528,-70 192,-70"/>
</g>
<g id="clust2" class="cluster">
<title>cluster_AccountModule_declarations</title>
<polygon fill="none" stroke="black" points="376,-78 376,-130 520,-130 520,-78 376,-78"/>
</g>
<g id="clust4" class="cluster">
<title>cluster_AccountModule_imports</title>
<polygon fill="none" stroke="black" points="200,-78 200,-130 368,-130 368,-78 200,-78"/>
</g>
<g id="clust5" class="cluster">
<title>cluster_AccountModule_exports</title>
<polygon fill="none" stroke="black" points="291,-219 291,-271 439,-271 439,-219 291,-219"/>
</g>
<g id="clust14" class="cluster">
<title>cluster_AppModule</title>
<polygon fill="none" stroke="black" stroke-dasharray="1,5" points="792,-146 792,-347 1215,-347 1215,-146 792,-146"/>
</g>
<g id="clust15" class="cluster">
<title>cluster_AppModule_declarations</title>
<polygon fill="none" stroke="black" points="1085,-154 1085,-206 1207,-206 1207,-154 1085,-154"/>
</g>
<g id="clust17" class="cluster">
<title>cluster_AppModule_imports</title>
<polygon fill="none" stroke="black" points="800,-154 800,-206 1077,-206 1077,-154 800,-154"/>
</g>
<g id="clust19" class="cluster">
<title>cluster_AppModule_bootstrap</title>
<polygon fill="none" stroke="black" points="943,-287 943,-339 1067,-339 1067,-287 943,-287"/>
</g>
<g id="clust27" class="cluster">
<title>cluster_ContainerModule</title>
<polygon fill="none" stroke="black" stroke-dasharray="1,5" points="536,-70 536,-138 1541,-138 1541,-70 536,-70"/>
</g>
<g id="clust30" class="cluster">
<title>cluster_ContainerModule_imports</title>
<polygon fill="none" stroke="black" points="1357,-78 1357,-130 1533,-130 1533,-78 1357,-78"/>
</g>
<g id="clust33" class="cluster">
<title>cluster_ContainerModule_providers</title>
<polygon fill="none" stroke="black" points="544,-78 544,-130 1349,-130 1349,-78 544,-78"/>
</g>
<g id="clust40" class="cluster">
<title>cluster_GithubModule</title>
<polygon fill="none" stroke="black" stroke-dasharray="1,5" points="8,-70 8,-206 184,-206 184,-70 8,-70"/>
</g>
<g id="clust43" class="cluster">
<title>cluster_GithubModule_imports</title>
<polygon fill="none" stroke="black" points="16,-78 16,-130 176,-130 176,-78 16,-78"/>
</g>
<!-- AccountComponent -->
<g id="node1" class="node">
<title>AccountComponent</title>
<polygon fill="#ffffb3" stroke="black" points="512.26,-122 383.74,-122 383.74,-86 512.26,-86 512.26,-122"/>
<text text-anchor="middle" x="448" y="-99.8" font-family="Times,serif" font-size="14.00">AccountComponent</text>
</g>
<!-- AccountModule -->
<g id="node2" class="node">
<title>AccountModule</title>
<polygon fill="#8dd3c7" stroke="black" points="418.48,-198 415.48,-202 394.48,-202 391.48,-198 311.52,-198 311.52,-162 418.48,-162 418.48,-198"/>
<text text-anchor="middle" x="365" y="-175.8" font-family="Times,serif" font-size="14.00">AccountModule</text>
</g>
<!-- AccountComponent&#45;&gt;AccountModule -->
<g id="edge1" class="edge">
<title>AccountComponent&#45;&gt;AccountModule</title>
<path fill="none" stroke="black" d="M406.87,-122.01C406.87,-122.01 406.87,-151.85 406.87,-151.85"/>
<polygon fill="black" stroke="black" points="403.37,-151.85 406.87,-161.85 410.37,-151.85 403.37,-151.85"/>
</g>
<!-- ContainerModule -->
<g id="node8" class="node">
<title>ContainerModule</title>
<polygon fill="#8dd3c7" stroke="black" points="922.26,-198 919.26,-202 898.26,-202 895.26,-198 807.74,-198 807.74,-162 922.26,-162 922.26,-198"/>
<text text-anchor="middle" x="865" y="-175.8" font-family="Times,serif" font-size="14.00">ContainerModule</text>
</g>
<!-- AccountComponent&#45;&gt;ContainerModule -->
<g id="edge8" class="edge">
<title>AccountComponent&#45;&gt;ContainerModule</title>
<path fill="none" stroke="black" d="M471.75,-122.01C471.75,-144.49 471.75,-180 471.75,-180 471.75,-180 797.4,-180 797.4,-180"/>
<polygon fill="black" stroke="black" points="797.4,-183.5 807.4,-180 797.4,-176.5 797.4,-183.5"/>
</g>
<!-- GithubModule -->
<g id="node16" class="node">
<title>GithubModule</title>
<polygon fill="#8dd3c7" stroke="black" points="176.44,-198 173.44,-202 152.44,-202 149.44,-198 77.56,-198 77.56,-162 176.44,-162 176.44,-198"/>
<text text-anchor="middle" x="127" y="-175.8" font-family="Times,serif" font-size="14.00">GithubModule</text>
</g>
<!-- AccountComponent&#45;&gt;GithubModule -->
<g id="edge16" class="edge">
<title>AccountComponent&#45;&gt;GithubModule</title>
<path fill="none" stroke="black" d="M395.24,-122.06C395.24,-126.49 395.24,-130 395.24,-130 395.24,-130 172,-130 172,-130 172,-130 172,-151.95 172,-151.95"/>
<polygon fill="black" stroke="black" points="168.5,-151.95 172,-161.95 175.5,-151.95 168.5,-151.95"/>
</g>
<!-- AccountComponent  -->
<g id="node4" class="node">
<title>AccountComponent </title>
<polygon fill="#fb8072" stroke="black" points="431.26,-263 298.74,-263 298.74,-227 431.26,-227 431.26,-263"/>
<text text-anchor="middle" x="365" y="-240.8" font-family="Times,serif" font-size="14.00">AccountComponent </text>
</g>
<!-- AccountModule&#45;&gt;AccountComponent  -->
<g id="edge3" class="edge">
<title>AccountModule&#45;&gt;AccountComponent </title>
<path fill="none" stroke="black" stroke-dasharray="5,2" d="M365,-198.11C365,-198.11 365,-216.99 365,-216.99"/>
<polygon fill="black" stroke="black" points="361.5,-216.99 365,-226.99 368.5,-216.99 361.5,-216.99"/>
</g>
<!-- AccountRoutingModule -->
<g id="node3" class="node">
<title>AccountRoutingModule</title>
<polygon fill="#8dd3c7" stroke="black" points="360.09,-122 357.09,-126 336.09,-126 333.09,-122 207.91,-122 207.91,-86 360.09,-86 360.09,-122"/>
<text text-anchor="middle" x="284" y="-99.8" font-family="Times,serif" font-size="14.00">AccountRoutingModule</text>
</g>
<!-- AccountRoutingModule&#45;&gt;AccountModule -->
<g id="edge2" class="edge">
<title>AccountRoutingModule&#45;&gt;AccountModule</title>
<path fill="none" stroke="black" d="M335.78,-122.01C335.78,-122.01 335.78,-151.85 335.78,-151.85"/>
<polygon fill="black" stroke="black" points="332.28,-151.85 335.78,-161.85 339.28,-151.85 332.28,-151.85"/>
</g>
<!-- AppComponent -->
<g id="node5" class="node">
<title>AppComponent</title>
<polygon fill="#ffffb3" stroke="black" points="1198.94,-198 1093.06,-198 1093.06,-162 1198.94,-162 1198.94,-198"/>
<text text-anchor="middle" x="1146" y="-175.8" font-family="Times,serif" font-size="14.00">AppComponent</text>
</g>
<!-- AppModule -->
<g id="node6" class="node">
<title>AppModule</title>
<polygon fill="#8dd3c7" stroke="black" points="1046.66,-263 1043.66,-267 1022.66,-267 1019.66,-263 963.34,-263 963.34,-227 1046.66,-227 1046.66,-263"/>
<text text-anchor="middle" x="1005" y="-240.8" font-family="Times,serif" font-size="14.00">AppModule</text>
</g>
<!-- AppComponent&#45;&gt;AppModule -->
<g id="edge4" class="edge">
<title>AppComponent&#45;&gt;AppModule</title>
<path fill="none" stroke="black" d="M1146,-198.11C1146,-217.34 1146,-245 1146,-245 1146,-245 1056.92,-245 1056.92,-245"/>
<polygon fill="black" stroke="black" points="1056.92,-241.5 1046.92,-245 1056.92,-248.5 1056.92,-241.5"/>
</g>
<!-- AppComponent  -->
<g id="node9" class="node">
<title>AppComponent </title>
<polygon fill="#80b1d3" stroke="black" points="1059.44,-331 950.56,-331 950.56,-295 1059.44,-295 1059.44,-331"/>
<text text-anchor="middle" x="1005" y="-308.8" font-family="Times,serif" font-size="14.00">AppComponent </text>
</g>
<!-- AppModule&#45;&gt;AppComponent  -->
<g id="edge7" class="edge">
<title>AppModule&#45;&gt;AppComponent </title>
<path fill="none" stroke="black" stroke-dasharray="1,5" d="M1005,-263.22C1005,-263.22 1005,-284.73 1005,-284.73"/>
<polygon fill="black" stroke="black" points="1001.5,-284.73 1005,-294.73 1008.5,-284.73 1001.5,-284.73"/>
</g>
<!-- AppRoutingModule -->
<g id="node7" class="node">
<title>AppRoutingModule</title>
<polygon fill="#8dd3c7" stroke="black" points="1069.27,-198 1066.27,-202 1045.27,-202 1042.27,-198 940.73,-198 940.73,-162 1069.27,-162 1069.27,-198"/>
<text text-anchor="middle" x="1005" y="-175.8" font-family="Times,serif" font-size="14.00">AppRoutingModule</text>
</g>
<!-- AppRoutingModule&#45;&gt;AppModule -->
<g id="edge5" class="edge">
<title>AppRoutingModule&#45;&gt;AppModule</title>
<path fill="none" stroke="black" d="M1005,-198.11C1005,-198.11 1005,-216.99 1005,-216.99"/>
<polygon fill="black" stroke="black" points="1001.5,-216.99 1005,-226.99 1008.5,-216.99 1001.5,-216.99"/>
</g>
<!-- ContainerModule&#45;&gt;AccountComponent  -->
<g id="edge10" class="edge">
<title>ContainerModule&#45;&gt;AccountComponent </title>
<path fill="none" stroke="black" stroke-dasharray="5,2" d="M807.45,-189C688.13,-189 424.81,-189 424.81,-189 424.81,-189 424.81,-216.97 424.81,-216.97"/>
<polygon fill="black" stroke="black" points="421.31,-216.97 424.81,-226.97 428.31,-216.97 421.31,-216.97"/>
</g>
<!-- ContainerModule&#45;&gt;AppModule -->
<g id="edge6" class="edge">
<title>ContainerModule&#45;&gt;AppModule</title>
<path fill="none" stroke="black" d="M865,-198.11C865,-217.34 865,-245 865,-245 865,-245 953,-245 953,-245"/>
<polygon fill="black" stroke="black" points="953,-248.5 963,-245 953,-241.5 953,-248.5"/>
</g>
<!-- ContainerRoutingModule -->
<g id="node10" class="node">
<title>ContainerRoutingModule</title>
<polygon fill="#8dd3c7" stroke="black" points="1524.88,-122 1521.88,-126 1500.88,-126 1497.88,-122 1365.12,-122 1365.12,-86 1524.88,-86 1524.88,-122"/>
<text text-anchor="middle" x="1445" y="-99.8" font-family="Times,serif" font-size="14.00">ContainerRoutingModule</text>
</g>
<!-- ContainerRoutingModule&#45;&gt;ContainerModule -->
<g id="edge9" class="edge">
<title>ContainerRoutingModule&#45;&gt;ContainerModule</title>
<path fill="none" stroke="black" d="M1445,-122.05C1445,-136.37 1445,-154 1445,-154 1445,-154 913.61,-154 913.61,-154 913.61,-154 913.61,-154.79 913.61,-154.79"/>
<polygon fill="black" stroke="black" points="910.11,-151.94 913.61,-161.94 917.11,-151.94 910.11,-151.94"/>
</g>
<!-- ContainerService -->
<g id="node11" class="node">
<title>ContainerService</title>
<ellipse fill="#fdb462" stroke="black" cx="782" cy="-104" rx="78.15" ry="18"/>
<text text-anchor="middle" x="782" y="-99.8" font-family="Times,serif" font-size="14.00">ContainerService</text>
</g>
<!-- ContainerService&#45;&gt;ContainerModule -->
<g id="edge11" class="edge">
<title>ContainerService&#45;&gt;ContainerModule</title>
<path fill="none" stroke="black" d="M833.85,-117.59C833.85,-117.59 833.85,-151.96 833.85,-151.96"/>
<polygon fill="black" stroke="black" points="830.35,-151.96 833.85,-161.96 837.35,-151.96 830.35,-151.96"/>
</g>
<!-- GithubService -->
<g id="node12" class="node">
<title>GithubService</title>
<ellipse fill="#fdb462" stroke="black" cx="619" cy="-104" rx="66.63" ry="18"/>
<text text-anchor="middle" x="619" y="-99.8" font-family="Times,serif" font-size="14.00">GithubService</text>
</g>
<!-- GithubService&#45;&gt;ContainerModule -->
<g id="edge12" class="edge">
<title>GithubService&#45;&gt;ContainerModule</title>
<path fill="none" stroke="black" d="M619,-122.31C619,-142.15 619,-171 619,-171 619,-171 797.63,-171 797.63,-171"/>
<polygon fill="black" stroke="black" points="797.63,-174.5 807.63,-171 797.63,-167.5 797.63,-174.5"/>
</g>
<!-- IdentityService -->
<g id="node13" class="node">
<title>IdentityService</title>
<ellipse fill="#fdb462" stroke="black" cx="1271" cy="-104" rx="70.06" ry="18"/>
<text text-anchor="middle" x="1271" y="-99.8" font-family="Times,serif" font-size="14.00">IdentityService</text>
</g>
<!-- IdentityService&#45;&gt;ContainerModule -->
<g id="edge13" class="edge">
<title>IdentityService&#45;&gt;ContainerModule</title>
<path fill="none" stroke="black" d="M1271,-122.06C1271,-133.44 1271,-146 1271,-146 1271,-146 904.83,-146 904.83,-146 904.83,-146 904.83,-151.81 904.83,-151.81"/>
<polygon fill="black" stroke="black" points="901.33,-151.81 904.83,-161.81 908.33,-151.81 901.33,-151.81"/>
</g>
<!-- NetworkService -->
<g id="node14" class="node">
<title>NetworkService</title>
<ellipse fill="#fdb462" stroke="black" cx="1109" cy="-104" rx="73.55" ry="18"/>
<text text-anchor="middle" x="1109" y="-99.8" font-family="Times,serif" font-size="14.00">NetworkService</text>
</g>
<!-- NetworkService&#45;&gt;ContainerModule -->
<g id="edge14" class="edge">
<title>NetworkService&#45;&gt;ContainerModule</title>
<path fill="none" stroke="black" d="M1052.31,-115.89C1052.31,-125.7 1052.31,-138 1052.31,-138 1052.31,-138 896.06,-138 896.06,-138 896.06,-138 896.06,-151.94 896.06,-151.94"/>
<polygon fill="black" stroke="black" points="892.56,-151.94 896.06,-161.94 899.56,-151.94 892.56,-151.94"/>
</g>
<!-- StorageService -->
<g id="node15" class="node">
<title>StorageService</title>
<ellipse fill="#fdb462" stroke="black" cx="948" cy="-104" rx="69.48" ry="18"/>
<text text-anchor="middle" x="948" y="-99.8" font-family="Times,serif" font-size="14.00">StorageService</text>
</g>
<!-- StorageService&#45;&gt;ContainerModule -->
<g id="edge15" class="edge">
<title>StorageService&#45;&gt;ContainerModule</title>
<path fill="none" stroke="black" d="M887.28,-113.02C887.28,-113.02 887.28,-151.74 887.28,-151.74"/>
<polygon fill="black" stroke="black" points="883.78,-151.74 887.28,-161.74 890.78,-151.74 883.78,-151.74"/>
</g>
<!-- GithubModule&#45;&gt;AccountComponent  -->
<g id="edge18" class="edge">
<title>GithubModule&#45;&gt;AccountComponent </title>
<path fill="none" stroke="black" stroke-dasharray="5,2" d="M176.64,-180C229.36,-180 305.19,-180 305.19,-180 305.19,-180 305.19,-216.89 305.19,-216.89"/>
<polygon fill="black" stroke="black" points="301.69,-216.89 305.19,-226.89 308.69,-216.89 301.69,-216.89"/>
</g>
<!-- GithubRoutingModule -->
<g id="node17" class="node">
<title>GithubRoutingModule</title>
<polygon fill="#8dd3c7" stroke="black" points="167.56,-122 164.56,-126 143.56,-126 140.56,-122 24.44,-122 24.44,-86 167.56,-86 167.56,-122"/>
<text text-anchor="middle" x="96" y="-99.8" font-family="Times,serif" font-size="14.00">GithubRoutingModule</text>
</g>
<!-- GithubRoutingModule&#45;&gt;GithubModule -->
<g id="edge17" class="edge">
<title>GithubRoutingModule&#45;&gt;GithubModule</title>
<path fill="none" stroke="black" d="M122.78,-122.01C122.78,-122.01 122.78,-151.85 122.78,-151.85"/>
<polygon fill="black" stroke="black" points="119.28,-151.85 122.78,-161.85 126.28,-151.85 119.28,-151.85"/>
</g>
</g>
</svg>
