<?xml version="1.0" encoding="UTF-8" standalone="no"?>
<!DOCTYPE svg PUBLIC "-//W3C//DTD SVG 1.1//EN"
 "http://www.w3.org/Graphics/SVG/1.1/DTD/svg11.dtd">
<!-- Generated by graphviz version 2.44.1 (20200629.0846)
 -->
<!-- Title: dependencies Pages: 1 -->
<svg width="1226pt" height="363pt"
 viewBox="0.00 0.00 1226.00 363.00" xmlns="http://www.w3.org/2000/svg" xmlns:xlink="http://www.w3.org/1999/xlink">
<g id="graph0" class="graph" transform="scale(1 1) rotate(0) translate(4 359)">
<title>dependencies</title>
<polygon fill="white" stroke="transparent" points="-4,4 -4,-359 1222,-359 1222,4 -4,4"/>
<text text-anchor="start" x="588.01" y="-42.4" font-family="sans-serif" font-weight="bold" font-size="14.00">Legend</text>
<polygon fill="#ffffb3" stroke="transparent" points="375,-10 375,-30 395,-30 395,-10 375,-10"/>
<text text-anchor="start" x="398.63" y="-15.4" font-family="sans-serif" font-size="14.00"> &#160;Declarations</text>
<polygon fill="#8dd3c7" stroke="transparent" points="488,-10 488,-30 508,-30 508,-10 488,-10"/>
<text text-anchor="start" x="511.73" y="-15.4" font-family="sans-serif" font-size="14.00"> &#160;Module</text>
<polygon fill="#80b1d3" stroke="transparent" points="574,-10 574,-30 594,-30 594,-10 574,-10"/>
<text text-anchor="start" x="597.78" y="-15.4" font-family="sans-serif" font-size="14.00"> &#160;Bootstrap</text>
<polygon fill="#fdb462" stroke="transparent" points="671,-10 671,-30 691,-30 691,-10 671,-10"/>
<text text-anchor="start" x="694.67" y="-15.4" font-family="sans-serif" font-size="14.00"> &#160;Providers</text>
<polygon fill="#fb8072" stroke="transparent" points="767,-10 767,-30 787,-30 787,-10 767,-10"/>
<text text-anchor="start" x="790.73" y="-15.4" font-family="sans-serif" font-size="14.00"> &#160;Exports</text>
<g id="clust1" class="cluster">
<title>cluster_AccountModule</title>
<polygon fill="none" stroke="black" stroke-dasharray="1,5" points="192,-70 192,-279 528,-279 528,-70 192,-70"/>
</g>
<g id="clust2" class="cluster">
<title>cluster_AccountModule_declarations</title>
<polygon fill="none" stroke="black" points="376,-78 376,-130 520,-130 520,-78 376,-78"/>
</g>
<g id="clust4" class="cluster">
<title>cluster_AccountModule_imports</title>
<polygon fill="none" stroke="black" points="200,-78 200,-130 368,-130 368,-78 200,-78"/>
</g>
<g id="clust5" class="cluster">
<title>cluster_AccountModule_exports</title>
<polygon fill="none" stroke="black" points="291,-219 291,-271 439,-271 439,-219 291,-219"/>
</g>
<g id="clust14" class="cluster">
<title>cluster_AppModule</title>
<polygon fill="none" stroke="black" stroke-dasharray="1,5" points="625,-146 625,-347 1048,-347 1048,-146 625,-146"/>
</g>
<g id="clust15" class="cluster">
<title>cluster_AppModule_declarations</title>
<polygon fill="none" stroke="black" points="918,-154 918,-206 1040,-206 1040,-154 918,-154"/>
</g>
<g id="clust17" class="cluster">
<title>cluster_AppModule_imports</title>
<polygon fill="none" stroke="black" points="633,-154 633,-206 910,-206 910,-154 633,-154"/>
</g>
<g id="clust19" class="cluster">
<title>cluster_AppModule_bootstrap</title>
<polygon fill="none" stroke="black" points="776,-287 776,-339 900,-339 900,-287 776,-287"/>
</g>
<g id="clust27" class="cluster">
<title>cluster_ContainerModule</title>
<polygon fill="none" stroke="black" stroke-dasharray="1,5" points="536,-70 536,-138 1210,-138 1210,-70 536,-70"/>
</g>
<g id="clust30" class="cluster">
<title>cluster_ContainerModule_imports</title>
<polygon fill="none" stroke="black" points="1026,-78 1026,-130 1202,-130 1202,-78 1026,-78"/>
</g>
<g id="clust33" class="cluster">
<title>cluster_ContainerModule_providers</title>
<polygon fill="none" stroke="black" points="544,-78 544,-130 1018,-130 1018,-78 544,-78"/>
</g>
<g id="clust40" class="cluster">
<title>cluster_GithubModule</title>
<polygon fill="none" stroke="black" stroke-dasharray="1,5" points="8,-70 8,-206 184,-206 184,-70 8,-70"/>
</g>
<g id="clust43" class="cluster">
<title>cluster_GithubModule_imports</title>
<polygon fill="none" stroke="black" points="16,-78 16,-130 176,-130 176,-78 16,-78"/>
</g>
<!-- AccountComponent -->
<g id="node1" class="node">
<title>AccountComponent</title>
<polygon fill="#ffffb3" stroke="black" points="512.26,-122 383.74,-122 383.74,-86 512.26,-86 512.26,-122"/>
<text text-anchor="middle" x="448" y="-99.8" font-family="Times,serif" font-size="14.00">AccountComponent</text>
</g>
<!-- AccountModule -->
<g id="node2" class="node">
<title>AccountModule</title>
<polygon fill="#8dd3c7" stroke="black" points="418.48,-198 415.48,-202 394.48,-202 391.48,-198 311.52,-198 311.52,-162 418.48,-162 418.48,-198"/>
<text text-anchor="middle" x="365" y="-175.8" font-family="Times,serif" font-size="14.00">AccountModule</text>
</g>
<!-- AccountComponent&#45;&gt;AccountModule -->
<g id="edge1" class="edge">
<title>AccountComponent&#45;&gt;AccountModule</title>
<path fill="none" stroke="black" d="M406.87,-122.01C406.87,-122.01 406.87,-151.85 406.87,-151.85"/>
<polygon fill="black" stroke="black" points="403.37,-151.85 406.87,-161.85 410.37,-151.85 403.37,-151.85"/>
</g>
<!-- ContainerModule -->
<g id="node8" class="node">
<title>ContainerModule</title>
<polygon fill="#8dd3c7" stroke="black" points="755.26,-198 752.26,-202 731.26,-202 728.26,-198 640.74,-198 640.74,-162 755.26,-162 755.26,-198"/>
<text text-anchor="middle" x="698" y="-175.8" font-family="Times,serif" font-size="14.00">ContainerModule</text>
</g>
<!-- AccountComponent&#45;&gt;ContainerModule -->
<g id="edge8" class="edge">
<title>AccountComponent&#45;&gt;ContainerModule</title>
<path fill="none" stroke="black" d="M471.75,-122.03C471.75,-142.77 471.75,-174 471.75,-174 471.75,-174 630.62,-174 630.62,-174"/>
<polygon fill="black" stroke="black" points="630.62,-177.5 640.62,-174 630.62,-170.5 630.62,-177.5"/>
</g>
<!-- GithubModule -->
<g id="node14" class="node">
<title>GithubModule</title>
<polygon fill="#8dd3c7" stroke="black" points="176.44,-198 173.44,-202 152.44,-202 149.44,-198 77.56,-198 77.56,-162 176.44,-162 176.44,-198"/>
<text text-anchor="middle" x="127" y="-175.8" font-family="Times,serif" font-size="14.00">GithubModule</text>
</g>
<!-- AccountComponent&#45;&gt;GithubModule -->
<g id="edge14" class="edge">
<title>AccountComponent&#45;&gt;GithubModule</title>
<path fill="none" stroke="black" d="M395.24,-122.21C395.24,-127.55 395.24,-132 395.24,-132 395.24,-132 172,-132 172,-132 172,-132 172,-151.85 172,-151.85"/>
<polygon fill="black" stroke="black" points="168.5,-151.85 172,-161.85 175.5,-151.85 168.5,-151.85"/>
</g>
<!-- AccountComponent  -->
<g id="node4" class="node">
<title>AccountComponent </title>
<polygon fill="#fb8072" stroke="black" points="431.26,-263 298.74,-263 298.74,-227 431.26,-227 431.26,-263"/>
<text text-anchor="middle" x="365" y="-240.8" font-family="Times,serif" font-size="14.00">AccountComponent </text>
</g>
<!-- AccountModule&#45;&gt;AccountComponent  -->
<g id="edge3" class="edge">
<title>AccountModule&#45;&gt;AccountComponent </title>
<path fill="none" stroke="black" stroke-dasharray="5,2" d="M365,-198.11C365,-198.11 365,-216.99 365,-216.99"/>
<polygon fill="black" stroke="black" points="361.5,-216.99 365,-226.99 368.5,-216.99 361.5,-216.99"/>
</g>
<!-- AccountRoutingModule -->
<g id="node3" class="node">
<title>AccountRoutingModule</title>
<polygon fill="#8dd3c7" stroke="black" points="360.09,-122 357.09,-126 336.09,-126 333.09,-122 207.91,-122 207.91,-86 360.09,-86 360.09,-122"/>
<text text-anchor="middle" x="284" y="-99.8" font-family="Times,serif" font-size="14.00">AccountRoutingModule</text>
</g>
<!-- AccountRoutingModule&#45;&gt;AccountModule -->
<g id="edge2" class="edge">
<title>AccountRoutingModule&#45;&gt;AccountModule</title>
<path fill="none" stroke="black" d="M335.78,-122.01C335.78,-122.01 335.78,-151.85 335.78,-151.85"/>
<polygon fill="black" stroke="black" points="332.28,-151.85 335.78,-161.85 339.28,-151.85 332.28,-151.85"/>
</g>
<!-- AppComponent -->
<g id="node5" class="node">
<title>AppComponent</title>
<polygon fill="#ffffb3" stroke="black" points="1031.94,-198 926.06,-198 926.06,-162 1031.94,-162 1031.94,-198"/>
<text text-anchor="middle" x="979" y="-175.8" font-family="Times,serif" font-size="14.00">AppComponent</text>
</g>
<!-- AppModule -->
<g id="node6" class="node">
<title>AppModule</title>
<polygon fill="#8dd3c7" stroke="black" points="879.66,-263 876.66,-267 855.66,-267 852.66,-263 796.34,-263 796.34,-227 879.66,-227 879.66,-263"/>
<text text-anchor="middle" x="838" y="-240.8" font-family="Times,serif" font-size="14.00">AppModule</text>
</g>
<!-- AppComponent&#45;&gt;AppModule -->
<g id="edge4" class="edge">
<title>AppComponent&#45;&gt;AppModule</title>
<path fill="none" stroke="black" d="M979,-198.11C979,-217.34 979,-245 979,-245 979,-245 889.92,-245 889.92,-245"/>
<polygon fill="black" stroke="black" points="889.92,-241.5 879.92,-245 889.92,-248.5 889.92,-241.5"/>
</g>
<!-- AppComponent  -->
<g id="node9" class="node">
<title>AppComponent </title>
<polygon fill="#80b1d3" stroke="black" points="892.44,-331 783.56,-331 783.56,-295 892.44,-295 892.44,-331"/>
<text text-anchor="middle" x="838" y="-308.8" font-family="Times,serif" font-size="14.00">AppComponent </text>
</g>
<!-- AppModule&#45;&gt;AppComponent  -->
<g id="edge7" class="edge">
<title>AppModule&#45;&gt;AppComponent </title>
<path fill="none" stroke="black" stroke-dasharray="1,5" d="M838,-263.22C838,-263.22 838,-284.73 838,-284.73"/>
<polygon fill="black" stroke="black" points="834.5,-284.73 838,-294.73 841.5,-284.73 834.5,-284.73"/>
</g>
<!-- AppRoutingModule -->
<g id="node7" class="node">
<title>AppRoutingModule</title>
<polygon fill="#8dd3c7" stroke="black" points="902.27,-198 899.27,-202 878.27,-202 875.27,-198 773.73,-198 773.73,-162 902.27,-162 902.27,-198"/>
<text text-anchor="middle" x="838" y="-175.8" font-family="Times,serif" font-size="14.00">AppRoutingModule</text>
</g>
<!-- AppRoutingModule&#45;&gt;AppModule -->
<g id="edge5" class="edge">
<title>AppRoutingModule&#45;&gt;AppModule</title>
<path fill="none" stroke="black" d="M838,-198.11C838,-198.11 838,-216.99 838,-216.99"/>
<polygon fill="black" stroke="black" points="834.5,-216.99 838,-226.99 841.5,-216.99 834.5,-216.99"/>
</g>
<!-- ContainerModule&#45;&gt;AccountComponent  -->
<g id="edge10" class="edge">
<title>ContainerModule&#45;&gt;AccountComponent </title>
<path fill="none" stroke="black" stroke-dasharray="5,2" d="M640.73,-186C560.62,-186 424.81,-186 424.81,-186 424.81,-186 424.81,-216.98 424.81,-216.98"/>
<polygon fill="black" stroke="black" points="421.31,-216.98 424.81,-226.98 428.31,-216.98 421.31,-216.98"/>
</g>
<!-- ContainerModule&#45;&gt;AppModule -->
<g id="edge6" class="edge">
<title>ContainerModule&#45;&gt;AppModule</title>
<path fill="none" stroke="black" d="M698,-198.11C698,-217.34 698,-245 698,-245 698,-245 786,-245 786,-245"/>
<polygon fill="black" stroke="black" points="786,-248.5 796,-245 786,-241.5 786,-248.5"/>
</g>
<!-- ContainerRoutingModule -->
<g id="node10" class="node">
<title>ContainerRoutingModule</title>
<polygon fill="#8dd3c7" stroke="black" points="1193.88,-122 1190.88,-126 1169.88,-126 1166.88,-122 1034.12,-122 1034.12,-86 1193.88,-86 1193.88,-122"/>
<text text-anchor="middle" x="1114" y="-99.8" font-family="Times,serif" font-size="14.00">ContainerRoutingModule</text>
</g>
<!-- ContainerRoutingModule&#45;&gt;ContainerModule -->
<g id="edge9" class="edge">
<title>ContainerRoutingModule&#45;&gt;ContainerModule</title>
<path fill="none" stroke="black" d="M1114,-122.15C1114,-135.74 1114,-152 1114,-152 1114,-152 742.59,-152 742.59,-152 742.59,-152 742.59,-152.98 742.59,-152.98"/>
<polygon fill="black" stroke="black" points="739.09,-151.79 742.59,-161.79 746.09,-151.79 739.09,-151.79"/>
</g>
<!-- GithubService -->
<g id="node11" class="node">
<title>GithubService</title>
<ellipse fill="#fdb462" stroke="black" cx="619" cy="-104" rx="66.63" ry="18"/>
<text text-anchor="middle" x="619" y="-99.8" font-family="Times,serif" font-size="14.00">GithubService</text>
</g>
<!-- GithubService&#45;&gt;ContainerModule -->
<g id="edge11" class="edge">
<title>GithubService&#45;&gt;ContainerModule</title>
<path fill="none" stroke="black" d="M663.22,-117.59C663.22,-117.59 663.22,-151.96 663.22,-151.96"/>
<polygon fill="black" stroke="black" points="659.72,-151.96 663.22,-161.96 666.72,-151.96 659.72,-151.96"/>
</g>
<!-- IdentityService -->
<g id="node12" class="node">
<title>IdentityService</title>
<ellipse fill="#fdb462" stroke="black" cx="940" cy="-104" rx="70.06" ry="18"/>
<text text-anchor="middle" x="940" y="-99.8" font-family="Times,serif" font-size="14.00">IdentityService</text>
</g>
<!-- IdentityService&#45;&gt;ContainerModule -->
<g id="edge12" class="edge">
<title>IdentityService&#45;&gt;ContainerModule</title>
<path fill="none" stroke="black" d="M886.18,-115.61C886.18,-126.78 886.18,-142 886.18,-142 886.18,-142 729.8,-142 729.8,-142 729.8,-142 729.8,-151.89 729.8,-151.89"/>
<polygon fill="black" stroke="black" points="726.3,-151.89 729.8,-161.89 733.3,-151.89 726.3,-151.89"/>
</g>
<!-- NetworkService -->
<g id="node13" class="node">
<title>NetworkService</title>
<ellipse fill="#fdb462" stroke="black" cx="778" cy="-104" rx="73.55" ry="18"/>
<text text-anchor="middle" x="778" y="-99.8" font-family="Times,serif" font-size="14.00">NetworkService</text>
</g>
<!-- NetworkService&#45;&gt;ContainerModule -->
<g id="edge13" class="edge">
<title>NetworkService&#45;&gt;ContainerModule</title>
<path fill="none" stroke="black" d="M717.01,-114.25C717.01,-114.25 717.01,-151.77 717.01,-151.77"/>
<polygon fill="black" stroke="black" points="713.51,-151.77 717.01,-161.77 720.51,-151.77 713.51,-151.77"/>
</g>
<!-- GithubModule&#45;&gt;AccountComponent  -->
<g id="edge16" class="edge">
<title>GithubModule&#45;&gt;AccountComponent </title>
<path fill="none" stroke="black" stroke-dasharray="5,2" d="M176.64,-180C229.36,-180 305.19,-180 305.19,-180 305.19,-180 305.19,-216.89 305.19,-216.89"/>
<polygon fill="black" stroke="black" points="301.69,-216.89 305.19,-226.89 308.69,-216.89 301.69,-216.89"/>
</g>
<!-- GithubRoutingModule -->
<g id="node15" class="node">
<title>GithubRoutingModule</title>
<polygon fill="#8dd3c7" stroke="black" points="167.56,-122 164.56,-126 143.56,-126 140.56,-122 24.44,-122 24.44,-86 167.56,-86 167.56,-122"/>
<text text-anchor="middle" x="96" y="-99.8" font-family="Times,serif" font-size="14.00">GithubRoutingModule</text>
</g>
<!-- GithubRoutingModule&#45;&gt;GithubModule -->
<g id="edge15" class="edge">
<title>GithubRoutingModule&#45;&gt;GithubModule</title>
<path fill="none" stroke="black" d="M122.78,-122.01C122.78,-122.01 122.78,-151.85 122.78,-151.85"/>
<polygon fill="black" stroke="black" points="119.28,-151.85 122.78,-161.85 126.28,-151.85 119.28,-151.85"/>
</g>
</g>
</svg>
