<?xml version="1.0" encoding="UTF-8" standalone="no"?>
<!DOCTYPE svg PUBLIC "-//W3C//DTD SVG 1.1//EN"
 "http://www.w3.org/Graphics/SVG/1.1/DTD/svg11.dtd">
<!-- Generated by graphviz version 2.44.1 (20200629.0846)
 -->
<!-- Title: dependencies Pages: 1 -->
<svg width="1296pt" height="284pt"
 viewBox="0.00 0.00 1296.00 284.00" xmlns="http://www.w3.org/2000/svg" xmlns:xlink="http://www.w3.org/1999/xlink">
<g id="graph0" class="graph" transform="scale(1 1) rotate(0) translate(4 280)">
<title>dependencies</title>
<polygon fill="white" stroke="transparent" points="-4,4 -4,-280 1292,-280 1292,4 -4,4"/>
<text text-anchor="start" x="623.01" y="-42.4" font-family="sans-serif" font-weight="bold" font-size="14.00">Legend</text>
<polygon fill="#ffffb3" stroke="transparent" points="410,-10 410,-30 430,-30 430,-10 410,-10"/>
<text text-anchor="start" x="433.63" y="-15.4" font-family="sans-serif" font-size="14.00"> &#160;Declarations</text>
<polygon fill="#8dd3c7" stroke="transparent" points="523,-10 523,-30 543,-30 543,-10 523,-10"/>
<text text-anchor="start" x="546.73" y="-15.4" font-family="sans-serif" font-size="14.00"> &#160;Module</text>
<polygon fill="#80b1d3" stroke="transparent" points="609,-10 609,-30 629,-30 629,-10 609,-10"/>
<text text-anchor="start" x="632.78" y="-15.4" font-family="sans-serif" font-size="14.00"> &#160;Bootstrap</text>
<polygon fill="#fdb462" stroke="transparent" points="706,-10 706,-30 726,-30 726,-10 706,-10"/>
<text text-anchor="start" x="729.67" y="-15.4" font-family="sans-serif" font-size="14.00"> &#160;Providers</text>
<polygon fill="#fb8072" stroke="transparent" points="802,-10 802,-30 822,-30 822,-10 802,-10"/>
<text text-anchor="start" x="825.73" y="-15.4" font-family="sans-serif" font-size="14.00"> &#160;Exports</text>
<g id="clust1" class="cluster">
<title>cluster_AccountModule</title>
<polygon fill="none" stroke="black" stroke-dasharray="1,5" points="8,-70 8,-195 168,-195 168,-70 8,-70"/>
</g>
<g id="clust2" class="cluster">
<title>cluster_AccountModule_declarations</title>
<polygon fill="none" stroke="black" points="16,-78 16,-130 160,-130 160,-78 16,-78"/>
</g>
<g id="clust8" class="cluster">
<title>cluster_AppModule</title>
<polygon fill="none" stroke="black" stroke-dasharray="1,5" points="176,-70 176,-268 466,-268 466,-70 176,-70"/>
</g>
<g id="clust9" class="cluster">
<title>cluster_AppModule_declarations</title>
<polygon fill="none" stroke="black" points="336,-78 336,-130 458,-130 458,-78 336,-78"/>
</g>
<g id="clust11" class="cluster">
<title>cluster_AppModule_imports</title>
<polygon fill="none" stroke="black" points="184,-78 184,-130 328,-130 328,-78 184,-78"/>
</g>
<g id="clust13" class="cluster">
<title>cluster_AppModule_bootstrap</title>
<polygon fill="none" stroke="black" points="264,-208 264,-260 388,-260 388,-208 264,-208"/>
</g>
<g id="clust21" class="cluster">
<title>cluster_ContainerModule</title>
<polygon fill="none" stroke="black" stroke-dasharray="1,5" points="474,-70 474,-195 642,-195 642,-70 474,-70"/>
</g>
<g id="clust22" class="cluster">
<title>cluster_ContainerModule_declarations</title>
<polygon fill="none" stroke="black" points="482,-78 482,-130 634,-130 634,-78 482,-78"/>
</g>
<g id="clust34" class="cluster">
<title>cluster_GithubModule</title>
<polygon fill="none" stroke="black" stroke-dasharray="1,5" points="650,-70 650,-268 1280,-268 1280,-70 650,-70"/>
</g>
<g id="clust35" class="cluster">
<title>cluster_GithubModule_declarations</title>
<polygon fill="none" stroke="black" points="666,-78 666,-130 1266,-130 1266,-78 666,-78"/>
</g>
<g id="clust41" class="cluster">
<title>cluster_GithubModule_exports</title>
<polygon fill="none" stroke="black" points="658,-208 658,-260 1272,-260 1272,-208 658,-208"/>
</g>
<!-- AccountComponent -->
<g id="node1" class="node">
<title>AccountComponent</title>
<polygon fill="#ffffb3" stroke="black" points="152.26,-122 23.74,-122 23.74,-86 152.26,-86 152.26,-122"/>
<text text-anchor="middle" x="88" y="-99.8" font-family="Times,serif" font-size="14.00">AccountComponent</text>
</g>
<!-- AccountModule -->
<g id="node2" class="node">
<title>AccountModule</title>
<polygon fill="#8dd3c7" stroke="black" points="141.48,-187 138.48,-191 117.48,-191 114.48,-187 34.52,-187 34.52,-151 141.48,-151 141.48,-187"/>
<text text-anchor="middle" x="88" y="-164.8" font-family="Times,serif" font-size="14.00">AccountModule</text>
</g>
<!-- AccountComponent&#45;&gt;AccountModule -->
<g id="edge1" class="edge">
<title>AccountComponent&#45;&gt;AccountModule</title>
<path fill="none" stroke="black" d="M88,-122.11C88,-122.11 88,-140.99 88,-140.99"/>
<polygon fill="black" stroke="black" points="84.5,-140.99 88,-150.99 91.5,-140.99 84.5,-140.99"/>
</g>
<!-- AppComponent -->
<g id="node3" class="node">
<title>AppComponent</title>
<polygon fill="#ffffb3" stroke="black" points="449.94,-122 344.06,-122 344.06,-86 449.94,-86 449.94,-122"/>
<text text-anchor="middle" x="397" y="-99.8" font-family="Times,serif" font-size="14.00">AppComponent</text>
</g>
<!-- AppModule -->
<g id="node4" class="node">
<title>AppModule</title>
<polygon fill="#8dd3c7" stroke="black" points="367.66,-187 364.66,-191 343.66,-191 340.66,-187 284.34,-187 284.34,-151 367.66,-151 367.66,-187"/>
<text text-anchor="middle" x="326" y="-164.8" font-family="Times,serif" font-size="14.00">AppModule</text>
</g>
<!-- AppComponent&#45;&gt;AppModule -->
<g id="edge2" class="edge">
<title>AppComponent&#45;&gt;AppModule</title>
<path fill="none" stroke="black" d="M356.05,-122.11C356.05,-122.11 356.05,-140.99 356.05,-140.99"/>
<polygon fill="black" stroke="black" points="352.55,-140.99 356.05,-150.99 359.55,-140.99 352.55,-140.99"/>
</g>
<!-- AppComponent  -->
<g id="node6" class="node">
<title>AppComponent </title>
<polygon fill="#80b1d3" stroke="black" points="380.44,-252 271.56,-252 271.56,-216 380.44,-216 380.44,-252"/>
<text text-anchor="middle" x="326" y="-229.8" font-family="Times,serif" font-size="14.00">AppComponent </text>
</g>
<!-- AppModule&#45;&gt;AppComponent  -->
<g id="edge4" class="edge">
<title>AppModule&#45;&gt;AppComponent </title>
<path fill="none" stroke="black" stroke-dasharray="1,5" d="M326,-187.11C326,-187.11 326,-205.99 326,-205.99"/>
<polygon fill="black" stroke="black" points="322.5,-205.99 326,-215.99 329.5,-205.99 322.5,-205.99"/>
</g>
<!-- AppRoutingModule -->
<g id="node5" class="node">
<title>AppRoutingModule</title>
<polygon fill="#8dd3c7" stroke="black" points="320.27,-122 317.27,-126 296.27,-126 293.27,-122 191.73,-122 191.73,-86 320.27,-86 320.27,-122"/>
<text text-anchor="middle" x="256" y="-99.8" font-family="Times,serif" font-size="14.00">AppRoutingModule</text>
</g>
<!-- AppRoutingModule&#45;&gt;AppModule -->
<g id="edge3" class="edge">
<title>AppRoutingModule&#45;&gt;AppModule</title>
<path fill="none" stroke="black" d="M302.28,-122.11C302.28,-122.11 302.28,-140.99 302.28,-140.99"/>
<polygon fill="black" stroke="black" points="298.78,-140.99 302.28,-150.99 305.78,-140.99 298.78,-140.99"/>
</g>
<!-- ContainerComponent -->
<g id="node7" class="node">
<title>ContainerComponent</title>
<polygon fill="#ffffb3" stroke="black" points="626.04,-122 489.96,-122 489.96,-86 626.04,-86 626.04,-122"/>
<text text-anchor="middle" x="558" y="-99.8" font-family="Times,serif" font-size="14.00">ContainerComponent</text>
</g>
<!-- ContainerModule -->
<g id="node8" class="node">
<title>ContainerModule</title>
<polygon fill="#8dd3c7" stroke="black" points="615.26,-187 612.26,-191 591.26,-191 588.26,-187 500.74,-187 500.74,-151 615.26,-151 615.26,-187"/>
<text text-anchor="middle" x="558" y="-164.8" font-family="Times,serif" font-size="14.00">ContainerModule</text>
</g>
<!-- ContainerComponent&#45;&gt;ContainerModule -->
<g id="edge5" class="edge">
<title>ContainerComponent&#45;&gt;ContainerModule</title>
<path fill="none" stroke="black" d="M558,-122.11C558,-122.11 558,-140.99 558,-140.99"/>
<polygon fill="black" stroke="black" points="554.5,-140.99 558,-150.99 561.5,-140.99 554.5,-140.99"/>
</g>
<!-- GitProfileComponent -->
<g id="node9" class="node">
<title>GitProfileComponent</title>
<polygon fill="#ffffb3" stroke="black" points="1257.82,-122 1120.18,-122 1120.18,-86 1257.82,-86 1257.82,-122"/>
<text text-anchor="middle" x="1189" y="-99.8" font-family="Times,serif" font-size="14.00">GitProfileComponent</text>
</g>
<!-- GithubModule -->
<g id="node13" class="node">
<title>GithubModule</title>
<polygon fill="#8dd3c7" stroke="black" points="932.44,-187 929.44,-191 908.44,-191 905.44,-187 833.56,-187 833.56,-151 932.44,-151 932.44,-187"/>
<text text-anchor="middle" x="883" y="-164.8" font-family="Times,serif" font-size="14.00">GithubModule</text>
</g>
<!-- GitProfileComponent&#45;&gt;GithubModule -->
<g id="edge6" class="edge">
<title>GitProfileComponent&#45;&gt;GithubModule</title>
<path fill="none" stroke="black" d="M1212.97,-122.27C1212.97,-140.56 1212.97,-166 1212.97,-166 1212.97,-166 942.4,-166 942.4,-166"/>
<polygon fill="black" stroke="black" points="942.4,-162.5 932.4,-166 942.4,-169.5 942.4,-162.5"/>
</g>
<!-- GitResultComponent -->
<g id="node10" class="node">
<title>GitResultComponent</title>
<polygon fill="#ffffb3" stroke="black" points="1102.5,-122 967.5,-122 967.5,-86 1102.5,-86 1102.5,-122"/>
<text text-anchor="middle" x="1035" y="-99.8" font-family="Times,serif" font-size="14.00">GitResultComponent</text>
</g>
<!-- GitResultComponent&#45;&gt;GithubModule -->
<g id="edge7" class="edge">
<title>GitResultComponent&#45;&gt;GithubModule</title>
<path fill="none" stroke="black" d="M1057.5,-122.01C1057.5,-138.05 1057.5,-159 1057.5,-159 1057.5,-159 942.54,-159 942.54,-159"/>
<polygon fill="black" stroke="black" points="942.54,-155.5 932.54,-159 942.54,-162.5 942.54,-155.5"/>
</g>
<!-- GitSearchComponent -->
<g id="node11" class="node">
<title>GitSearchComponent</title>
<polygon fill="#ffffb3" stroke="black" points="949.81,-122 812.19,-122 812.19,-86 949.81,-86 949.81,-122"/>
<text text-anchor="middle" x="881" y="-99.8" font-family="Times,serif" font-size="14.00">GitSearchComponent</text>
</g>
<!-- GitSearchComponent&#45;&gt;GithubModule -->
<g id="edge8" class="edge">
<title>GitSearchComponent&#45;&gt;GithubModule</title>
<path fill="none" stroke="black" d="M883,-122.11C883,-122.11 883,-140.99 883,-140.99"/>
<polygon fill="black" stroke="black" points="879.5,-140.99 883,-150.99 886.5,-140.99 879.5,-140.99"/>
</g>
<!-- GithubComponent -->
<g id="node12" class="node">
<title>GithubComponent</title>
<polygon fill="#ffffb3" stroke="black" points="794.22,-122 673.78,-122 673.78,-86 794.22,-86 794.22,-122"/>
<text text-anchor="middle" x="734" y="-99.8" font-family="Times,serif" font-size="14.00">GithubComponent</text>
</g>
<!-- GithubComponent&#45;&gt;GithubModule -->
<g id="edge9" class="edge">
<title>GithubComponent&#45;&gt;GithubModule</title>
<path fill="none" stroke="black" d="M751.2,-122.02C751.2,-139.37 751.2,-163 751.2,-163 751.2,-163 823.55,-163 823.55,-163"/>
<polygon fill="black" stroke="black" points="823.55,-166.5 833.55,-163 823.55,-159.5 823.55,-166.5"/>
</g>
<!-- GitProfileComponent  -->
<g id="node14" class="node">
<title>GitProfileComponent </title>
<polygon fill="#fb8072" stroke="black" points="1264.32,-252 1123.68,-252 1123.68,-216 1264.32,-216 1264.32,-252"/>
<text text-anchor="middle" x="1194" y="-229.8" font-family="Times,serif" font-size="14.00">GitProfileComponent </text>
</g>
<!-- GithubModule&#45;&gt;GitProfileComponent  -->
<g id="edge10" class="edge">
<title>GithubModule&#45;&gt;GitProfileComponent </title>
<path fill="none" stroke="black" stroke-dasharray="5,2" d="M932.37,-173C1014.02,-173 1168.28,-173 1168.28,-173 1168.28,-173 1168.28,-205.7 1168.28,-205.7"/>
<polygon fill="black" stroke="black" points="1164.78,-205.7 1168.28,-215.7 1171.78,-205.7 1164.78,-205.7"/>
</g>
<!-- GitResultComponent  -->
<g id="node15" class="node">
<title>GitResultComponent </title>
<polygon fill="#fb8072" stroke="black" points="1105.5,-252 966.5,-252 966.5,-216 1105.5,-216 1105.5,-252"/>
<text text-anchor="middle" x="1036" y="-229.8" font-family="Times,serif" font-size="14.00">GitResultComponent </text>
</g>
<!-- GithubModule&#45;&gt;GitResultComponent  -->
<g id="edge11" class="edge">
<title>GithubModule&#45;&gt;GitResultComponent </title>
<path fill="none" stroke="black" stroke-dasharray="5,2" d="M932.33,-180C968.92,-180 1012.5,-180 1012.5,-180 1012.5,-180 1012.5,-205.72 1012.5,-205.72"/>
<polygon fill="black" stroke="black" points="1009,-205.72 1012.5,-215.72 1016,-205.72 1009,-205.72"/>
</g>
<!-- GitSearchComponent  -->
<g id="node16" class="node">
<title>GitSearchComponent </title>
<polygon fill="#fb8072" stroke="black" points="948.31,-252 807.69,-252 807.69,-216 948.31,-216 948.31,-252"/>
<text text-anchor="middle" x="878" y="-229.8" font-family="Times,serif" font-size="14.00">GitSearchComponent </text>
</g>
<!-- GithubModule&#45;&gt;GitSearchComponent  -->
<g id="edge12" class="edge">
<title>GithubModule&#45;&gt;GitSearchComponent </title>
<path fill="none" stroke="black" stroke-dasharray="5,2" d="M883,-187.11C883,-187.11 883,-205.99 883,-205.99"/>
<polygon fill="black" stroke="black" points="879.5,-205.99 883,-215.99 886.5,-205.99 879.5,-205.99"/>
</g>
<!-- GithubComponent  -->
<g id="node17" class="node">
<title>GithubComponent </title>
<polygon fill="#fb8072" stroke="black" points="789.72,-252 666.28,-252 666.28,-216 789.72,-216 789.72,-252"/>
<text text-anchor="middle" x="728" y="-229.8" font-family="Times,serif" font-size="14.00">GithubComponent </text>
</g>
<!-- GithubModule&#45;&gt;GithubComponent  -->
<g id="edge13" class="edge">
<title>GithubModule&#45;&gt;GithubComponent </title>
<path fill="none" stroke="black" stroke-dasharray="5,2" d="M833.7,-175C783.36,-175 712.55,-175 712.55,-175 712.55,-175 712.55,-205.98 712.55,-205.98"/>
<polygon fill="black" stroke="black" points="709.05,-205.98 712.55,-215.98 716.05,-205.98 709.05,-205.98"/>
</g>
</g>
</svg>
