<?xml version="1.0" encoding="UTF-8" standalone="no"?>
<!DOCTYPE svg PUBLIC "-//W3C//DTD SVG 1.1//EN"
 "http://www.w3.org/Graphics/SVG/1.1/DTD/svg11.dtd">
<!-- Generated by graphviz version 2.44.1 (20200629.0846)
 -->
<!-- Title: dependencies Pages: 1 -->
<svg width="504pt" height="284pt"
 viewBox="0.00 0.00 504.00 284.00" xmlns="http://www.w3.org/2000/svg" xmlns:xlink="http://www.w3.org/1999/xlink">
<g id="graph0" class="graph" transform="scale(1 1) rotate(0) translate(4 280)">
<title>dependencies</title>
<polygon fill="white" stroke="transparent" points="-4,4 -4,-280 500,-280 500,4 -4,4"/>
<text text-anchor="start" x="227.01" y="-42.4" font-family="sans-serif" font-weight="bold" font-size="14.00">Legend</text>
<polygon fill="#ffffb3" stroke="transparent" points="14,-10 14,-30 34,-30 34,-10 14,-10"/>
<text text-anchor="start" x="37.63" y="-15.4" font-family="sans-serif" font-size="14.00"> &#160;Declarations</text>
<polygon fill="#8dd3c7" stroke="transparent" points="127,-10 127,-30 147,-30 147,-10 127,-10"/>
<text text-anchor="start" x="150.73" y="-15.4" font-family="sans-serif" font-size="14.00"> &#160;Module</text>
<polygon fill="#80b1d3" stroke="transparent" points="213,-10 213,-30 233,-30 233,-10 213,-10"/>
<text text-anchor="start" x="236.78" y="-15.4" font-family="sans-serif" font-size="14.00"> &#160;Bootstrap</text>
<polygon fill="#fdb462" stroke="transparent" points="310,-10 310,-30 330,-30 330,-10 310,-10"/>
<text text-anchor="start" x="333.67" y="-15.4" font-family="sans-serif" font-size="14.00"> &#160;Providers</text>
<polygon fill="#fb8072" stroke="transparent" points="406,-10 406,-30 426,-30 426,-10 406,-10"/>
<text text-anchor="start" x="429.73" y="-15.4" font-family="sans-serif" font-size="14.00"> &#160;Exports</text>
<g id="clust1" class="cluster">
<title>cluster_AccountModule</title>
<polygon fill="none" stroke="black" stroke-dasharray="1,5" points="80,-70 80,-268 416,-268 416,-70 80,-70"/>
</g>
<g id="clust4" class="cluster">
<title>cluster_AccountModule_imports</title>
<polygon fill="none" stroke="black" points="240,-78 240,-130 408,-130 408,-78 240,-78"/>
</g>
<g id="clust2" class="cluster">
<title>cluster_AccountModule_declarations</title>
<polygon fill="none" stroke="black" points="88,-78 88,-130 232,-130 232,-78 88,-78"/>
</g>
<g id="clust5" class="cluster">
<title>cluster_AccountModule_exports</title>
<polygon fill="none" stroke="black" points="169,-208 169,-260 317,-260 317,-208 169,-208"/>
</g>
<!-- AccountComponent -->
<g id="node1" class="node">
<title>AccountComponent</title>
<polygon fill="#ffffb3" stroke="black" points="224.26,-122 95.74,-122 95.74,-86 224.26,-86 224.26,-122"/>
<text text-anchor="middle" x="160" y="-99.8" font-family="Times,serif" font-size="14.00">AccountComponent</text>
</g>
<!-- AccountModule -->
<g id="node2" class="node">
<title>AccountModule</title>
<polygon fill="#8dd3c7" stroke="black" points="296.48,-187 293.48,-191 272.48,-191 269.48,-187 189.52,-187 189.52,-151 296.48,-151 296.48,-187"/>
<text text-anchor="middle" x="243" y="-164.8" font-family="Times,serif" font-size="14.00">AccountModule</text>
</g>
<!-- AccountComponent&#45;&gt;AccountModule -->
<g id="edge1" class="edge">
<title>AccountComponent&#45;&gt;AccountModule</title>
<path fill="none" stroke="black" d="M206.95,-122.11C206.95,-122.11 206.95,-140.99 206.95,-140.99"/>
<polygon fill="black" stroke="black" points="203.45,-140.99 206.95,-150.99 210.45,-140.99 203.45,-140.99"/>
</g>
<!-- AccountComponent  -->
<g id="node4" class="node">
<title>AccountComponent </title>
<polygon fill="#fb8072" stroke="black" points="309.26,-252 176.74,-252 176.74,-216 309.26,-216 309.26,-252"/>
<text text-anchor="middle" x="243" y="-229.8" font-family="Times,serif" font-size="14.00">AccountComponent </text>
</g>
<!-- AccountModule&#45;&gt;AccountComponent  -->
<g id="edge3" class="edge">
<title>AccountModule&#45;&gt;AccountComponent </title>
<path fill="none" stroke="black" stroke-dasharray="5,2" d="M243,-187.11C243,-187.11 243,-205.99 243,-205.99"/>
<polygon fill="black" stroke="black" points="239.5,-205.99 243,-215.99 246.5,-205.99 239.5,-205.99"/>
</g>
<!-- AccountRoutingModule -->
<g id="node3" class="node">
<title>AccountRoutingModule</title>
<polygon fill="#8dd3c7" stroke="black" points="400.09,-122 397.09,-126 376.09,-126 373.09,-122 247.91,-122 247.91,-86 400.09,-86 400.09,-122"/>
<text text-anchor="middle" x="324" y="-99.8" font-family="Times,serif" font-size="14.00">AccountRoutingModule</text>
</g>
<!-- AccountRoutingModule&#45;&gt;AccountModule -->
<g id="edge2" class="edge">
<title>AccountRoutingModule&#45;&gt;AccountModule</title>
<path fill="none" stroke="black" d="M272.22,-122.11C272.22,-122.11 272.22,-140.99 272.22,-140.99"/>
<polygon fill="black" stroke="black" points="268.72,-140.99 272.22,-150.99 275.72,-140.99 268.72,-140.99"/>
</g>
</g>
</svg>
